<?xml version="1.0" encoding="UTF-8" standalone="no"?>
<!DOCTYPE svg PUBLIC "-//W3C//DTD SVG 1.1//EN"
 "http://www.w3.org/Graphics/SVG/1.1/DTD/svg11.dtd">
<!-- Generated by graphviz version 2.43.0 (0)
 -->
<!-- Title: controllers_diagram Pages: 1 -->
<svg width="1486pt" height="1371pt"
 viewBox="0.00 0.00 1486.00 1371.00" xmlns="http://www.w3.org/2000/svg" xmlns:xlink="http://www.w3.org/1999/xlink">
<g id="graph0" class="graph" transform="scale(1 1) rotate(0) translate(4 1367)">
<title>controllers_diagram</title>
<polygon fill="transparent" stroke="transparent" points="-4,4 -4,-1367 1482,-1367 1482,4 -4,4"/>
<!-- _diagram_info -->
<g id="node1" class="node">
<title>_diagram_info</title>
<text text-anchor="start" x="176" y="-231.6" font-family="Times,serif" font-size="13.00">Controllers diagram</text>
<text text-anchor="start" x="176" y="-217.6" font-family="Times,serif" font-size="13.00">Date: Jun 13 2023 &#45; 00:25</text>
<text text-anchor="start" x="176" y="-203.6" font-family="Times,serif" font-size="13.00">Migration version: 20230426213818</text>
<text text-anchor="start" x="176" y="-189.6" font-family="Times,serif" font-size="13.00">Generated by RailRoady 1.6.0</text>
<text text-anchor="start" x="176" y="-175.6" font-family="Times,serif" font-size="13.00">http://railroady.prestonlee.com</text>
</g>
<!-- AnswearsController -->
<g id="node2" class="node">
<title>AnswearsController</title>
<path fill="none" stroke="black" d="M369,-945.5C369,-945.5 503,-945.5 503,-945.5 509,-945.5 515,-951.5 515,-957.5 515,-957.5 515,-1176.5 515,-1176.5 515,-1182.5 509,-1188.5 503,-1188.5 503,-1188.5 369,-1188.5 369,-1188.5 363,-1188.5 357,-1182.5 357,-1176.5 357,-1176.5 357,-957.5 357,-957.5 357,-951.5 363,-945.5 369,-945.5"/>
<text text-anchor="middle" x="436" y="-1173.3" font-family="Times,serif" font-size="14.00">AnswearsController</text>
<polyline fill="none" stroke="black" points="357,-1165.5 515,-1165.5 "/>
<text text-anchor="start" x="365" y="-1150.3" font-family="Times,serif" font-size="14.00">answear_params</text>
<text text-anchor="start" x="365" y="-1135.3" font-family="Times,serif" font-size="14.00">create</text>
<text text-anchor="start" x="365" y="-1120.3" font-family="Times,serif" font-size="14.00">edit</text>
<text text-anchor="start" x="365" y="-1105.3" font-family="Times,serif" font-size="14.00">grade_params</text>
<text text-anchor="start" x="365" y="-1090.3" font-family="Times,serif" font-size="14.00">index</text>
<text text-anchor="start" x="365" y="-1075.3" font-family="Times,serif" font-size="14.00">new</text>
<text text-anchor="start" x="365" y="-1060.3" font-family="Times,serif" font-size="14.00">parse_compiler</text>
<text text-anchor="start" x="365" y="-1045.3" font-family="Times,serif" font-size="14.00">ruby_compiler</text>
<text text-anchor="start" x="365" y="-1030.3" font-family="Times,serif" font-size="14.00">show</text>
<text text-anchor="start" x="365" y="-1015.3" font-family="Times,serif" font-size="14.00">update</text>
<polyline fill="none" stroke="black" points="357,-1007.5 515,-1007.5 "/>
<polyline fill="none" stroke="black" points="357,-983.5 515,-983.5 "/>
<text text-anchor="start" x="365" y="-968.3" font-family="Times,serif" font-size="14.00">_layout</text>
<text text-anchor="start" x="365" y="-953.3" font-family="Times,serif" font-size="14.00">_layout_from_proc</text>
</g>
<!-- ApplicationController -->
<g id="node3" class="node">
<title>ApplicationController</title>
<path fill="none" stroke="black" d="M306,-294.5C306,-294.5 533,-294.5 533,-294.5 539,-294.5 545,-300.5 545,-306.5 545,-306.5 545,-420.5 545,-420.5 545,-426.5 539,-432.5 533,-432.5 533,-432.5 306,-432.5 306,-432.5 300,-432.5 294,-426.5 294,-420.5 294,-420.5 294,-306.5 294,-306.5 294,-300.5 300,-294.5 306,-294.5"/>
<text text-anchor="middle" x="419.5" y="-417.3" font-family="Times,serif" font-size="14.00">ApplicationController</text>
<polyline fill="none" stroke="black" points="294,-409.5 545,-409.5 "/>
<polyline fill="none" stroke="black" points="294,-385.5 545,-385.5 "/>
<text text-anchor="start" x="302" y="-370.3" font-family="Times,serif" font-size="14.00">authorize_admin</text>
<text text-anchor="start" x="302" y="-355.3" font-family="Times,serif" font-size="14.00">configure_permitted_parameters</text>
<text text-anchor="start" x="302" y="-340.3" font-family="Times,serif" font-size="14.00">create_notification</text>
<polyline fill="none" stroke="black" points="294,-332.5 545,-332.5 "/>
<text text-anchor="start" x="302" y="-317.3" font-family="Times,serif" font-size="14.00">_layout</text>
<text text-anchor="start" x="302" y="-302.3" font-family="Times,serif" font-size="14.00">_layout_from_proc</text>
</g>
<!-- AssignmentsController -->
<g id="node4" class="node">
<title>AssignmentsController</title>
<path fill="none" stroke="black" d="M999,-546.5C999,-546.5 1156,-546.5 1156,-546.5 1162,-546.5 1168,-552.5 1168,-558.5 1168,-558.5 1168,-762.5 1168,-762.5 1168,-768.5 1162,-774.5 1156,-774.5 1156,-774.5 999,-774.5 999,-774.5 993,-774.5 987,-768.5 987,-762.5 987,-762.5 987,-558.5 987,-558.5 987,-552.5 993,-546.5 999,-546.5"/>
<text text-anchor="middle" x="1077.5" y="-759.3" font-family="Times,serif" font-size="14.00">AssignmentsController</text>
<polyline fill="none" stroke="black" points="987,-751.5 1168,-751.5 "/>
<text text-anchor="start" x="995" y="-736.3" font-family="Times,serif" font-size="14.00">assignment_params</text>
<text text-anchor="start" x="995" y="-721.3" font-family="Times,serif" font-size="14.00">calendar</text>
<text text-anchor="start" x="995" y="-706.3" font-family="Times,serif" font-size="14.00">create</text>
<text text-anchor="start" x="995" y="-691.3" font-family="Times,serif" font-size="14.00">create_notification</text>
<text text-anchor="start" x="995" y="-676.3" font-family="Times,serif" font-size="14.00">edit</text>
<text text-anchor="start" x="995" y="-661.3" font-family="Times,serif" font-size="14.00">index</text>
<text text-anchor="start" x="995" y="-646.3" font-family="Times,serif" font-size="14.00">new</text>
<text text-anchor="start" x="995" y="-631.3" font-family="Times,serif" font-size="14.00">show</text>
<text text-anchor="start" x="995" y="-616.3" font-family="Times,serif" font-size="14.00">update</text>
<polyline fill="none" stroke="black" points="987,-608.5 1168,-608.5 "/>
<polyline fill="none" stroke="black" points="987,-584.5 1168,-584.5 "/>
<text text-anchor="start" x="995" y="-569.3" font-family="Times,serif" font-size="14.00">_layout</text>
<text text-anchor="start" x="995" y="-554.3" font-family="Times,serif" font-size="14.00">_layout_from_proc</text>
</g>
<!-- BillsController -->
<g id="node5" class="node">
<title>BillsController</title>
<path fill="none" stroke="black" d="M474,-105.5C474,-105.5 596,-105.5 596,-105.5 602,-105.5 608,-111.5 608,-117.5 608,-117.5 608,-246.5 608,-246.5 608,-252.5 602,-258.5 596,-258.5 596,-258.5 474,-258.5 474,-258.5 468,-258.5 462,-252.5 462,-246.5 462,-246.5 462,-117.5 462,-117.5 462,-111.5 468,-105.5 474,-105.5"/>
<text text-anchor="middle" x="535" y="-243.3" font-family="Times,serif" font-size="14.00">BillsController</text>
<polyline fill="none" stroke="black" points="462,-235.5 608,-235.5 "/>
<text text-anchor="start" x="470" y="-220.3" font-family="Times,serif" font-size="14.00">bill_params</text>
<text text-anchor="start" x="470" y="-205.3" font-family="Times,serif" font-size="14.00">create</text>
<text text-anchor="start" x="470" y="-190.3" font-family="Times,serif" font-size="14.00">index</text>
<text text-anchor="start" x="470" y="-175.3" font-family="Times,serif" font-size="14.00">show</text>
<polyline fill="none" stroke="black" points="462,-167.5 608,-167.5 "/>
<polyline fill="none" stroke="black" points="462,-143.5 608,-143.5 "/>
<text text-anchor="start" x="470" y="-128.3" font-family="Times,serif" font-size="14.00">_layout</text>
<text text-anchor="start" x="470" y="-113.3" font-family="Times,serif" font-size="14.00">_layout_from_proc</text>
</g>
<!-- CheckoutController -->
<g id="node6" class="node">
<title>CheckoutController</title>
<path fill="none" stroke="black" d="M159,-945.5C159,-945.5 313,-945.5 313,-945.5 319,-945.5 325,-951.5 325,-957.5 325,-957.5 325,-1086.5 325,-1086.5 325,-1092.5 319,-1098.5 313,-1098.5 313,-1098.5 159,-1098.5 159,-1098.5 153,-1098.5 147,-1092.5 147,-1086.5 147,-1086.5 147,-957.5 147,-957.5 147,-951.5 153,-945.5 159,-945.5"/>
<text text-anchor="middle" x="236" y="-1083.3" font-family="Times,serif" font-size="14.00">CheckoutController</text>
<polyline fill="none" stroke="black" points="147,-1075.5 325,-1075.5 "/>
<text text-anchor="start" x="155" y="-1060.3" font-family="Times,serif" font-size="14.00">create</text>
<text text-anchor="start" x="155" y="-1045.3" font-family="Times,serif" font-size="14.00">show_pay_pal_order</text>
<text text-anchor="start" x="155" y="-1030.3" font-family="Times,serif" font-size="14.00">success</text>
<text text-anchor="start" x="155" y="-1015.3" font-family="Times,serif" font-size="14.00">success_pay_pal_order</text>
<polyline fill="none" stroke="black" points="147,-1007.5 325,-1007.5 "/>
<polyline fill="none" stroke="black" points="147,-983.5 325,-983.5 "/>
<text text-anchor="start" x="155" y="-968.3" font-family="Times,serif" font-size="14.00">_layout</text>
<text text-anchor="start" x="155" y="-953.3" font-family="Times,serif" font-size="14.00">_layout_from_proc</text>
</g>
<!-- CoursesController -->
<g id="node7" class="node">
<title>CoursesController</title>
<path fill="none" stroke="black" d="M579,-483.5C579,-483.5 710,-483.5 710,-483.5 716,-483.5 722,-489.5 722,-495.5 722,-495.5 722,-804.5 722,-804.5 722,-810.5 716,-816.5 710,-816.5 710,-816.5 579,-816.5 579,-816.5 573,-816.5 567,-810.5 567,-804.5 567,-804.5 567,-495.5 567,-495.5 567,-489.5 573,-483.5 579,-483.5"/>
<text text-anchor="middle" x="644.5" y="-801.3" font-family="Times,serif" font-size="14.00">CoursesController</text>
<polyline fill="none" stroke="black" points="567,-793.5 722,-793.5 "/>
<text text-anchor="start" x="575" y="-778.3" font-family="Times,serif" font-size="14.00">check_enrolled</text>
<text text-anchor="start" x="575" y="-763.3" font-family="Times,serif" font-size="14.00">child_courses</text>
<text text-anchor="start" x="575" y="-748.3" font-family="Times,serif" font-size="14.00">course_params</text>
<text text-anchor="start" x="575" y="-733.3" font-family="Times,serif" font-size="14.00">create</text>
<text text-anchor="start" x="575" y="-718.3" font-family="Times,serif" font-size="14.00">create_notification</text>
<text text-anchor="start" x="575" y="-703.3" font-family="Times,serif" font-size="14.00">edit</text>
<text text-anchor="start" x="575" y="-688.3" font-family="Times,serif" font-size="14.00">enroll_users</text>
<text text-anchor="start" x="575" y="-673.3" font-family="Times,serif" font-size="14.00">enrollment_params</text>
<text text-anchor="start" x="575" y="-658.3" font-family="Times,serif" font-size="14.00">index</text>
<text text-anchor="start" x="575" y="-643.3" font-family="Times,serif" font-size="14.00">my_courses</text>
<text text-anchor="start" x="575" y="-628.3" font-family="Times,serif" font-size="14.00">new</text>
<text text-anchor="start" x="575" y="-613.3" font-family="Times,serif" font-size="14.00">report_courses</text>
<text text-anchor="start" x="575" y="-598.3" font-family="Times,serif" font-size="14.00">save_enroll_users</text>
<text text-anchor="start" x="575" y="-583.3" font-family="Times,serif" font-size="14.00">shop</text>
<text text-anchor="start" x="575" y="-568.3" font-family="Times,serif" font-size="14.00">show</text>
<text text-anchor="start" x="575" y="-553.3" font-family="Times,serif" font-size="14.00">update</text>
<polyline fill="none" stroke="black" points="567,-545.5 722,-545.5 "/>
<polyline fill="none" stroke="black" points="567,-521.5 722,-521.5 "/>
<text text-anchor="start" x="575" y="-506.3" font-family="Times,serif" font-size="14.00">_layout</text>
<text text-anchor="start" x="575" y="-491.3" font-family="Times,serif" font-size="14.00">_layout_from_proc</text>
</g>
<!-- EnrollmentsController -->
<g id="node8" class="node">
<title>EnrollmentsController</title>
<path fill="none" stroke="black" d="M1083,-231.5C1083,-231.5 1236,-231.5 1236,-231.5 1242,-231.5 1248,-237.5 1248,-243.5 1248,-243.5 1248,-432.5 1248,-432.5 1248,-438.5 1242,-444.5 1236,-444.5 1236,-444.5 1083,-444.5 1083,-444.5 1077,-444.5 1071,-438.5 1071,-432.5 1071,-432.5 1071,-243.5 1071,-243.5 1071,-237.5 1077,-231.5 1083,-231.5"/>
<text text-anchor="middle" x="1159.5" y="-429.3" font-family="Times,serif" font-size="14.00">EnrollmentsController</text>
<polyline fill="none" stroke="black" points="1071,-421.5 1248,-421.5 "/>
<text text-anchor="start" x="1079" y="-406.3" font-family="Times,serif" font-size="14.00">create</text>
<text text-anchor="start" x="1079" y="-391.3" font-family="Times,serif" font-size="14.00">create_notification</text>
<text text-anchor="start" x="1079" y="-376.3" font-family="Times,serif" font-size="14.00">destroy</text>
<text text-anchor="start" x="1079" y="-361.3" font-family="Times,serif" font-size="14.00">enroll_params</text>
<text text-anchor="start" x="1079" y="-346.3" font-family="Times,serif" font-size="14.00">index</text>
<text text-anchor="start" x="1079" y="-331.3" font-family="Times,serif" font-size="14.00">new</text>
<text text-anchor="start" x="1079" y="-316.3" font-family="Times,serif" font-size="14.00">show</text>
<text text-anchor="start" x="1079" y="-301.3" font-family="Times,serif" font-size="14.00">show_enrolled</text>
<polyline fill="none" stroke="black" points="1071,-293.5 1248,-293.5 "/>
<polyline fill="none" stroke="black" points="1071,-269.5 1248,-269.5 "/>
<text text-anchor="start" x="1079" y="-254.3" font-family="Times,serif" font-size="14.00">_layout</text>
<text text-anchor="start" x="1079" y="-239.3" font-family="Times,serif" font-size="14.00">_layout_from_proc</text>
</g>
<!-- GradingScalesController -->
<g id="node9" class="node">
<title>GradingScalesController</title>
<path fill="none" stroke="black" d="M1146,-819.5C1146,-819.5 1315,-819.5 1315,-819.5 1321,-819.5 1327,-825.5 1327,-831.5 1327,-831.5 1327,-990.5 1327,-990.5 1327,-996.5 1321,-1002.5 1315,-1002.5 1315,-1002.5 1146,-1002.5 1146,-1002.5 1140,-1002.5 1134,-996.5 1134,-990.5 1134,-990.5 1134,-831.5 1134,-831.5 1134,-825.5 1140,-819.5 1146,-819.5"/>
<text text-anchor="middle" x="1230.5" y="-987.3" font-family="Times,serif" font-size="14.00">GradingScalesController</text>
<polyline fill="none" stroke="black" points="1134,-979.5 1327,-979.5 "/>
<text text-anchor="start" x="1142" y="-964.3" font-family="Times,serif" font-size="14.00">convert</text>
<text text-anchor="start" x="1142" y="-949.3" font-family="Times,serif" font-size="14.00">create</text>
<text text-anchor="start" x="1142" y="-934.3" font-family="Times,serif" font-size="14.00">index</text>
<text text-anchor="start" x="1142" y="-919.3" font-family="Times,serif" font-size="14.00">new</text>
<text text-anchor="start" x="1142" y="-904.3" font-family="Times,serif" font-size="14.00">scale_params</text>
<text text-anchor="start" x="1142" y="-889.3" font-family="Times,serif" font-size="14.00">show</text>
<polyline fill="none" stroke="black" points="1134,-881.5 1327,-881.5 "/>
<polyline fill="none" stroke="black" points="1134,-857.5 1327,-857.5 "/>
<text text-anchor="start" x="1142" y="-842.3" font-family="Times,serif" font-size="14.00">_layout</text>
<text text-anchor="start" x="1142" y="-827.3" font-family="Times,serif" font-size="14.00">_layout_from_proc</text>
</g>
<!-- GroupEnrollmentsController -->
<g id="node10" class="node">
<title>GroupEnrollmentsController</title>
<path fill="none" stroke="black" d="M894,-882.5C894,-882.5 1091,-882.5 1091,-882.5 1097,-882.5 1103,-888.5 1103,-894.5 1103,-894.5 1103,-1068.5 1103,-1068.5 1103,-1074.5 1097,-1080.5 1091,-1080.5 1091,-1080.5 894,-1080.5 894,-1080.5 888,-1080.5 882,-1074.5 882,-1068.5 882,-1068.5 882,-894.5 882,-894.5 882,-888.5 888,-882.5 894,-882.5"/>
<text text-anchor="middle" x="992.5" y="-1065.3" font-family="Times,serif" font-size="14.00">GroupEnrollmentsController</text>
<polyline fill="none" stroke="black" points="882,-1057.5 1103,-1057.5 "/>
<text text-anchor="start" x="890" y="-1042.3" font-family="Times,serif" font-size="14.00">create</text>
<text text-anchor="start" x="890" y="-1027.3" font-family="Times,serif" font-size="14.00">destroy</text>
<text text-anchor="start" x="890" y="-1012.3" font-family="Times,serif" font-size="14.00">group_enroll_params</text>
<text text-anchor="start" x="890" y="-997.3" font-family="Times,serif" font-size="14.00">index</text>
<text text-anchor="start" x="890" y="-982.3" font-family="Times,serif" font-size="14.00">new</text>
<text text-anchor="start" x="890" y="-967.3" font-family="Times,serif" font-size="14.00">show</text>
<text text-anchor="start" x="890" y="-952.3" font-family="Times,serif" font-size="14.00">show_enrolled</text>
<polyline fill="none" stroke="black" points="882,-944.5 1103,-944.5 "/>
<polyline fill="none" stroke="black" points="882,-920.5 1103,-920.5 "/>
<text text-anchor="start" x="890" y="-905.3" font-family="Times,serif" font-size="14.00">_layout</text>
<text text-anchor="start" x="890" y="-890.3" font-family="Times,serif" font-size="14.00">_layout_from_proc</text>
</g>
<!-- GroupsController -->
<g id="node11" class="node">
<title>GroupsController</title>
<path fill="none" stroke="black" d="M390,-546.5C390,-546.5 521,-546.5 521,-546.5 527,-546.5 533,-552.5 533,-558.5 533,-558.5 533,-807.5 533,-807.5 533,-813.5 527,-819.5 521,-819.5 521,-819.5 390,-819.5 390,-819.5 384,-819.5 378,-813.5 378,-807.5 378,-807.5 378,-558.5 378,-558.5 378,-552.5 384,-546.5 390,-546.5"/>
<text text-anchor="middle" x="455.5" y="-804.3" font-family="Times,serif" font-size="14.00">GroupsController</text>
<polyline fill="none" stroke="black" points="378,-796.5 533,-796.5 "/>
<text text-anchor="start" x="386" y="-781.3" font-family="Times,serif" font-size="14.00">check_enrolled</text>
<text text-anchor="start" x="386" y="-766.3" font-family="Times,serif" font-size="14.00">create</text>
<text text-anchor="start" x="386" y="-751.3" font-family="Times,serif" font-size="14.00">edit</text>
<text text-anchor="start" x="386" y="-736.3" font-family="Times,serif" font-size="14.00">enroll_users</text>
<text text-anchor="start" x="386" y="-721.3" font-family="Times,serif" font-size="14.00">enrollment_params</text>
<text text-anchor="start" x="386" y="-706.3" font-family="Times,serif" font-size="14.00">group_params</text>
<text text-anchor="start" x="386" y="-691.3" font-family="Times,serif" font-size="14.00">index</text>
<text text-anchor="start" x="386" y="-676.3" font-family="Times,serif" font-size="14.00">my_groups</text>
<text text-anchor="start" x="386" y="-661.3" font-family="Times,serif" font-size="14.00">new</text>
<text text-anchor="start" x="386" y="-646.3" font-family="Times,serif" font-size="14.00">save_enroll_users</text>
<text text-anchor="start" x="386" y="-631.3" font-family="Times,serif" font-size="14.00">show</text>
<text text-anchor="start" x="386" y="-616.3" font-family="Times,serif" font-size="14.00">update</text>
<polyline fill="none" stroke="black" points="378,-608.5 533,-608.5 "/>
<polyline fill="none" stroke="black" points="378,-584.5 533,-584.5 "/>
<text text-anchor="start" x="386" y="-569.3" font-family="Times,serif" font-size="14.00">_layout</text>
<text text-anchor="start" x="386" y="-554.3" font-family="Times,serif" font-size="14.00">_layout_from_proc</text>
</g>
<!-- HomeController -->
<g id="node12" class="node">
<title>HomeController</title>
<path fill="none" stroke="black" d="M222,-0.5C222,-0.5 344,-0.5 344,-0.5 350,-0.5 356,-6.5 356,-12.5 356,-12.5 356,-111.5 356,-111.5 356,-117.5 350,-123.5 344,-123.5 344,-123.5 222,-123.5 222,-123.5 216,-123.5 210,-117.5 210,-111.5 210,-111.5 210,-12.5 210,-12.5 210,-6.5 216,-0.5 222,-0.5"/>
<text text-anchor="middle" x="283" y="-108.3" font-family="Times,serif" font-size="14.00">HomeController</text>
<polyline fill="none" stroke="black" points="210,-100.5 356,-100.5 "/>
<text text-anchor="start" x="218" y="-85.3" font-family="Times,serif" font-size="14.00">index</text>
<text text-anchor="start" x="218" y="-70.3" font-family="Times,serif" font-size="14.00">show</text>
<polyline fill="none" stroke="black" points="210,-62.5 356,-62.5 "/>
<polyline fill="none" stroke="black" points="210,-38.5 356,-38.5 "/>
<text text-anchor="start" x="218" y="-23.3" font-family="Times,serif" font-size="14.00">_layout</text>
<text text-anchor="start" x="218" y="-8.3" font-family="Times,serif" font-size="14.00">_layout_from_proc</text>
</g>
<!-- LessonsController -->
<g id="node13" class="node">
<title>LessonsController</title>
<path fill="none" stroke="black" d="M180,-1134.5C180,-1134.5 305,-1134.5 305,-1134.5 311,-1134.5 317,-1140.5 317,-1146.5 317,-1146.5 317,-1350.5 317,-1350.5 317,-1356.5 311,-1362.5 305,-1362.5 305,-1362.5 180,-1362.5 180,-1362.5 174,-1362.5 168,-1356.5 168,-1350.5 168,-1350.5 168,-1146.5 168,-1146.5 168,-1140.5 174,-1134.5 180,-1134.5"/>
<text text-anchor="middle" x="242.5" y="-1347.3" font-family="Times,serif" font-size="14.00">LessonsController</text>
<polyline fill="none" stroke="black" points="168,-1339.5 317,-1339.5 "/>
<text text-anchor="start" x="176" y="-1324.3" font-family="Times,serif" font-size="14.00">course_params</text>
<text text-anchor="start" x="176" y="-1309.3" font-family="Times,serif" font-size="14.00">create</text>
<text text-anchor="start" x="176" y="-1294.3" font-family="Times,serif" font-size="14.00">create_notification</text>
<text text-anchor="start" x="176" y="-1279.3" font-family="Times,serif" font-size="14.00">edit</text>
<text text-anchor="start" x="176" y="-1264.3" font-family="Times,serif" font-size="14.00">index</text>
<text text-anchor="start" x="176" y="-1249.3" font-family="Times,serif" font-size="14.00">lesson_params</text>
<text text-anchor="start" x="176" y="-1234.3" font-family="Times,serif" font-size="14.00">new</text>
<text text-anchor="start" x="176" y="-1219.3" font-family="Times,serif" font-size="14.00">show</text>
<text text-anchor="start" x="176" y="-1204.3" font-family="Times,serif" font-size="14.00">update</text>
<polyline fill="none" stroke="black" points="168,-1196.5 317,-1196.5 "/>
<polyline fill="none" stroke="black" points="168,-1172.5 317,-1172.5 "/>
<text text-anchor="start" x="176" y="-1157.3" font-family="Times,serif" font-size="14.00">_layout</text>
<text text-anchor="start" x="176" y="-1142.3" font-family="Times,serif" font-size="14.00">_layout_from_proc</text>
</g>
<!-- MeetingsController -->
<g id="node14" class="node">
<title>MeetingsController</title>
<path fill="none" stroke="black" d="M201,-651.5C201,-651.5 333,-651.5 333,-651.5 339,-651.5 345,-657.5 345,-663.5 345,-663.5 345,-867.5 345,-867.5 345,-873.5 339,-879.5 333,-879.5 333,-879.5 201,-879.5 201,-879.5 195,-879.5 189,-873.5 189,-867.5 189,-867.5 189,-663.5 189,-663.5 189,-657.5 195,-651.5 201,-651.5"/>
<text text-anchor="middle" x="267" y="-864.3" font-family="Times,serif" font-size="14.00">MeetingsController</text>
<polyline fill="none" stroke="black" points="189,-856.5 345,-856.5 "/>
<text text-anchor="start" x="197" y="-841.3" font-family="Times,serif" font-size="14.00">create</text>
<text text-anchor="start" x="197" y="-826.3" font-family="Times,serif" font-size="14.00">create_invitation</text>
<text text-anchor="start" x="197" y="-811.3" font-family="Times,serif" font-size="14.00">create_notification</text>
<text text-anchor="start" x="197" y="-796.3" font-family="Times,serif" font-size="14.00">index</text>
<text text-anchor="start" x="197" y="-781.3" font-family="Times,serif" font-size="14.00">invite_users</text>
<text text-anchor="start" x="197" y="-766.3" font-family="Times,serif" font-size="14.00">meeting_params</text>
<text text-anchor="start" x="197" y="-751.3" font-family="Times,serif" font-size="14.00">new</text>
<text text-anchor="start" x="197" y="-736.3" font-family="Times,serif" font-size="14.00">send_invitations</text>
<text text-anchor="start" x="197" y="-721.3" font-family="Times,serif" font-size="14.00">show</text>
<polyline fill="none" stroke="black" points="189,-713.5 345,-713.5 "/>
<polyline fill="none" stroke="black" points="189,-689.5 345,-689.5 "/>
<text text-anchor="start" x="197" y="-674.3" font-family="Times,serif" font-size="14.00">_layout</text>
<text text-anchor="start" x="197" y="-659.3" font-family="Times,serif" font-size="14.00">_layout_from_proc</text>
</g>
<!-- MessagesController -->
<g id="node15" class="node">
<title>MessagesController</title>
<path fill="none" stroke="black" d="M12,-0.5C12,-0.5 148,-0.5 148,-0.5 154,-0.5 160,-6.5 160,-12.5 160,-12.5 160,-111.5 160,-111.5 160,-117.5 154,-123.5 148,-123.5 148,-123.5 12,-123.5 12,-123.5 6,-123.5 0,-117.5 0,-111.5 0,-111.5 0,-12.5 0,-12.5 0,-6.5 6,-0.5 12,-0.5"/>
<text text-anchor="middle" x="80" y="-108.3" font-family="Times,serif" font-size="14.00">MessagesController</text>
<polyline fill="none" stroke="black" points="0,-100.5 160,-100.5 "/>
<text text-anchor="start" x="8" y="-85.3" font-family="Times,serif" font-size="14.00">create</text>
<polyline fill="none" stroke="black" points="0,-77.5 160,-77.5 "/>
<polyline fill="none" stroke="black" points="0,-53.5 160,-53.5 "/>
<text text-anchor="start" x="8" y="-38.3" font-family="Times,serif" font-size="14.00">_layout</text>
<text text-anchor="start" x="8" y="-23.3" font-family="Times,serif" font-size="14.00">_layout_from_proc</text>
<text text-anchor="start" x="8" y="-8.3" font-family="Times,serif" font-size="14.00">msg_params</text>
</g>
<!-- NotificationsController -->
<g id="node16" class="node">
<title>NotificationsController</title>
<path fill="none" stroke="black" d="M1125,-1113.5C1125,-1113.5 1281,-1113.5 1281,-1113.5 1287,-1113.5 1293,-1119.5 1293,-1125.5 1293,-1125.5 1293,-1299.5 1293,-1299.5 1293,-1305.5 1287,-1311.5 1281,-1311.5 1281,-1311.5 1125,-1311.5 1125,-1311.5 1119,-1311.5 1113,-1305.5 1113,-1299.5 1113,-1299.5 1113,-1125.5 1113,-1125.5 1113,-1119.5 1119,-1113.5 1125,-1113.5"/>
<text text-anchor="middle" x="1203" y="-1296.3" font-family="Times,serif" font-size="14.00">NotificationsController</text>
<polyline fill="none" stroke="black" points="1113,-1288.5 1293,-1288.5 "/>
<text text-anchor="start" x="1121" y="-1273.3" font-family="Times,serif" font-size="14.00">create</text>
<text text-anchor="start" x="1121" y="-1258.3" font-family="Times,serif" font-size="14.00">destroy</text>
<text text-anchor="start" x="1121" y="-1243.3" font-family="Times,serif" font-size="14.00">index</text>
<text text-anchor="start" x="1121" y="-1228.3" font-family="Times,serif" font-size="14.00">jobs</text>
<text text-anchor="start" x="1121" y="-1213.3" font-family="Times,serif" font-size="14.00">new</text>
<text text-anchor="start" x="1121" y="-1198.3" font-family="Times,serif" font-size="14.00">notification_params</text>
<text text-anchor="start" x="1121" y="-1183.3" font-family="Times,serif" font-size="14.00">show</text>
<polyline fill="none" stroke="black" points="1113,-1175.5 1293,-1175.5 "/>
<polyline fill="none" stroke="black" points="1113,-1151.5 1293,-1151.5 "/>
<text text-anchor="start" x="1121" y="-1136.3" font-family="Times,serif" font-size="14.00">_layout</text>
<text text-anchor="start" x="1121" y="-1121.3" font-family="Times,serif" font-size="14.00">_layout_from_proc</text>
</g>
<!-- OptionsController -->
<g id="node17" class="node">
<title>OptionsController</title>
<path fill="none" stroke="black" d="M117,-420.5C117,-420.5 239,-420.5 239,-420.5 245,-420.5 251,-426.5 251,-432.5 251,-432.5 251,-606.5 251,-606.5 251,-612.5 245,-618.5 239,-618.5 239,-618.5 117,-618.5 117,-618.5 111,-618.5 105,-612.5 105,-606.5 105,-606.5 105,-432.5 105,-432.5 105,-426.5 111,-420.5 117,-420.5"/>
<text text-anchor="middle" x="178" y="-603.3" font-family="Times,serif" font-size="14.00">OptionsController</text>
<polyline fill="none" stroke="black" points="105,-595.5 251,-595.5 "/>
<text text-anchor="start" x="113" y="-580.3" font-family="Times,serif" font-size="14.00">create</text>
<text text-anchor="start" x="113" y="-565.3" font-family="Times,serif" font-size="14.00">edit</text>
<text text-anchor="start" x="113" y="-550.3" font-family="Times,serif" font-size="14.00">index</text>
<text text-anchor="start" x="113" y="-535.3" font-family="Times,serif" font-size="14.00">new</text>
<text text-anchor="start" x="113" y="-520.3" font-family="Times,serif" font-size="14.00">option_params</text>
<text text-anchor="start" x="113" y="-505.3" font-family="Times,serif" font-size="14.00">show</text>
<text text-anchor="start" x="113" y="-490.3" font-family="Times,serif" font-size="14.00">update</text>
<polyline fill="none" stroke="black" points="105,-482.5 251,-482.5 "/>
<polyline fill="none" stroke="black" points="105,-458.5 251,-458.5 "/>
<text text-anchor="start" x="113" y="-443.3" font-family="Times,serif" font-size="14.00">_layout</text>
<text text-anchor="start" x="113" y="-428.3" font-family="Times,serif" font-size="14.00">_layout_from_proc</text>
</g>
<!-- ParentRelationsController -->
<g id="node18" class="node">
<title>ParentRelationsController</title>
<path fill="none" stroke="black" d="M663,-189.5C663,-189.5 842,-189.5 842,-189.5 848,-189.5 854,-195.5 854,-201.5 854,-201.5 854,-330.5 854,-330.5 854,-336.5 848,-342.5 842,-342.5 842,-342.5 663,-342.5 663,-342.5 657,-342.5 651,-336.5 651,-330.5 651,-330.5 651,-201.5 651,-201.5 651,-195.5 657,-189.5 663,-189.5"/>
<text text-anchor="middle" x="752.5" y="-327.3" font-family="Times,serif" font-size="14.00">ParentRelationsController</text>
<polyline fill="none" stroke="black" points="651,-319.5 854,-319.5 "/>
<text text-anchor="start" x="659" y="-304.3" font-family="Times,serif" font-size="14.00">create</text>
<text text-anchor="start" x="659" y="-289.3" font-family="Times,serif" font-size="14.00">index</text>
<text text-anchor="start" x="659" y="-274.3" font-family="Times,serif" font-size="14.00">new</text>
<text text-anchor="start" x="659" y="-259.3" font-family="Times,serif" font-size="14.00">parentsrelation_params</text>
<polyline fill="none" stroke="black" points="651,-251.5 854,-251.5 "/>
<polyline fill="none" stroke="black" points="651,-227.5 854,-227.5 "/>
<text text-anchor="start" x="659" y="-212.3" font-family="Times,serif" font-size="14.00">_layout</text>
<text text-anchor="start" x="659" y="-197.3" font-family="Times,serif" font-size="14.00">_layout_from_proc</text>
</g>
<!-- QuestionsController -->
<g id="node19" class="node">
<title>QuestionsController</title>
<path fill="none" stroke="black" d="M684,-1155.5C684,-1155.5 821,-1155.5 821,-1155.5 827,-1155.5 833,-1161.5 833,-1167.5 833,-1167.5 833,-1341.5 833,-1341.5 833,-1347.5 827,-1353.5 821,-1353.5 821,-1353.5 684,-1353.5 684,-1353.5 678,-1353.5 672,-1347.5 672,-1341.5 672,-1341.5 672,-1167.5 672,-1167.5 672,-1161.5 678,-1155.5 684,-1155.5"/>
<text text-anchor="middle" x="752.5" y="-1338.3" font-family="Times,serif" font-size="14.00">QuestionsController</text>
<polyline fill="none" stroke="black" points="672,-1330.5 833,-1330.5 "/>
<text text-anchor="start" x="680" y="-1315.3" font-family="Times,serif" font-size="14.00">create</text>
<text text-anchor="start" x="680" y="-1300.3" font-family="Times,serif" font-size="14.00">edit</text>
<text text-anchor="start" x="680" y="-1285.3" font-family="Times,serif" font-size="14.00">index</text>
<text text-anchor="start" x="680" y="-1270.3" font-family="Times,serif" font-size="14.00">new</text>
<text text-anchor="start" x="680" y="-1255.3" font-family="Times,serif" font-size="14.00">question_params</text>
<text text-anchor="start" x="680" y="-1240.3" font-family="Times,serif" font-size="14.00">show</text>
<text text-anchor="start" x="680" y="-1225.3" font-family="Times,serif" font-size="14.00">update</text>
<polyline fill="none" stroke="black" points="672,-1217.5 833,-1217.5 "/>
<polyline fill="none" stroke="black" points="672,-1193.5 833,-1193.5 "/>
<text text-anchor="start" x="680" y="-1178.3" font-family="Times,serif" font-size="14.00">_layout</text>
<text text-anchor="start" x="680" y="-1163.3" font-family="Times,serif" font-size="14.00">_layout_from_proc</text>
</g>
<!-- ResourcesController -->
<g id="node20" class="node">
<title>ResourcesController</title>
<path fill="none" stroke="black" d="M558,-861.5C558,-861.5 710,-861.5 710,-861.5 716,-861.5 722,-867.5 722,-873.5 722,-873.5 722,-1107.5 722,-1107.5 722,-1113.5 716,-1119.5 710,-1119.5 710,-1119.5 558,-1119.5 558,-1119.5 552,-1119.5 546,-1113.5 546,-1107.5 546,-1107.5 546,-873.5 546,-873.5 546,-867.5 552,-861.5 558,-861.5"/>
<text text-anchor="middle" x="634" y="-1104.3" font-family="Times,serif" font-size="14.00">ResourcesController</text>
<polyline fill="none" stroke="black" points="546,-1096.5 722,-1096.5 "/>
<text text-anchor="start" x="554" y="-1081.3" font-family="Times,serif" font-size="14.00">create</text>
<text text-anchor="start" x="554" y="-1066.3" font-family="Times,serif" font-size="14.00">new</text>
<text text-anchor="start" x="554" y="-1051.3" font-family="Times,serif" font-size="14.00">new_resource_course</text>
<text text-anchor="start" x="554" y="-1036.3" font-family="Times,serif" font-size="14.00">new_resource_lesson</text>
<text text-anchor="start" x="554" y="-1021.3" font-family="Times,serif" font-size="14.00">new_resource_parent</text>
<text text-anchor="start" x="554" y="-1006.3" font-family="Times,serif" font-size="14.00">resource_params</text>
<text text-anchor="start" x="554" y="-991.3" font-family="Times,serif" font-size="14.00">show</text>
<text text-anchor="start" x="554" y="-976.3" font-family="Times,serif" font-size="14.00">show_resource_course</text>
<text text-anchor="start" x="554" y="-961.3" font-family="Times,serif" font-size="14.00">show_resource_docx</text>
<text text-anchor="start" x="554" y="-946.3" font-family="Times,serif" font-size="14.00">show_resource_parent</text>
<text text-anchor="start" x="554" y="-931.3" font-family="Times,serif" font-size="14.00">show_resource_pdf</text>
<polyline fill="none" stroke="black" points="546,-923.5 722,-923.5 "/>
<polyline fill="none" stroke="black" points="546,-899.5 722,-899.5 "/>
<text text-anchor="start" x="554" y="-884.3" font-family="Times,serif" font-size="14.00">_layout</text>
<text text-anchor="start" x="554" y="-869.3" font-family="Times,serif" font-size="14.00">_layout_from_proc</text>
</g>
<!-- RoomsController -->
<g id="node21" class="node">
<title>RoomsController</title>
<path fill="none" stroke="black" d="M12,-756.5C12,-756.5 134,-756.5 134,-756.5 140,-756.5 146,-762.5 146,-768.5 146,-768.5 146,-882.5 146,-882.5 146,-888.5 140,-894.5 134,-894.5 134,-894.5 12,-894.5 12,-894.5 6,-894.5 0,-888.5 0,-882.5 0,-882.5 0,-768.5 0,-768.5 0,-762.5 6,-756.5 12,-756.5"/>
<text text-anchor="middle" x="73" y="-879.3" font-family="Times,serif" font-size="14.00">RoomsController</text>
<polyline fill="none" stroke="black" points="0,-871.5 146,-871.5 "/>
<text text-anchor="start" x="8" y="-856.3" font-family="Times,serif" font-size="14.00">create</text>
<text text-anchor="start" x="8" y="-841.3" font-family="Times,serif" font-size="14.00">index</text>
<text text-anchor="start" x="8" y="-826.3" font-family="Times,serif" font-size="14.00">show</text>
<polyline fill="none" stroke="black" points="0,-818.5 146,-818.5 "/>
<polyline fill="none" stroke="black" points="0,-794.5 146,-794.5 "/>
<text text-anchor="start" x="8" y="-779.3" font-family="Times,serif" font-size="14.00">_layout</text>
<text text-anchor="start" x="8" y="-764.3" font-family="Times,serif" font-size="14.00">_layout_from_proc</text>
</g>
<!-- SchoolsController -->
<g id="node22" class="node">
<title>SchoolsController</title>
<path fill="none" stroke="black" d="M1230,-483.5C1230,-483.5 1352,-483.5 1352,-483.5 1358,-483.5 1364,-489.5 1364,-495.5 1364,-495.5 1364,-654.5 1364,-654.5 1364,-660.5 1358,-666.5 1352,-666.5 1352,-666.5 1230,-666.5 1230,-666.5 1224,-666.5 1218,-660.5 1218,-654.5 1218,-654.5 1218,-495.5 1218,-495.5 1218,-489.5 1224,-483.5 1230,-483.5"/>
<text text-anchor="middle" x="1291" y="-651.3" font-family="Times,serif" font-size="14.00">SchoolsController</text>
<polyline fill="none" stroke="black" points="1218,-643.5 1364,-643.5 "/>
<text text-anchor="start" x="1226" y="-628.3" font-family="Times,serif" font-size="14.00">create</text>
<text text-anchor="start" x="1226" y="-613.3" font-family="Times,serif" font-size="14.00">index</text>
<text text-anchor="start" x="1226" y="-598.3" font-family="Times,serif" font-size="14.00">new</text>
<text text-anchor="start" x="1226" y="-583.3" font-family="Times,serif" font-size="14.00">school_params</text>
<text text-anchor="start" x="1226" y="-568.3" font-family="Times,serif" font-size="14.00">show</text>
<text text-anchor="start" x="1226" y="-553.3" font-family="Times,serif" font-size="14.00">user_params</text>
<polyline fill="none" stroke="black" points="1218,-545.5 1364,-545.5 "/>
<polyline fill="none" stroke="black" points="1218,-521.5 1364,-521.5 "/>
<text text-anchor="start" x="1226" y="-506.3" font-family="Times,serif" font-size="14.00">_layout</text>
<text text-anchor="start" x="1226" y="-491.3" font-family="Times,serif" font-size="14.00">_layout_from_proc</text>
</g>
<!-- UserAnswearsController -->
<g id="node23" class="node">
<title>UserAnswearsController</title>
<path fill="none" stroke="black" d="M894,-1113.5C894,-1113.5 1063,-1113.5 1063,-1113.5 1069,-1113.5 1075,-1119.5 1075,-1125.5 1075,-1125.5 1075,-1299.5 1075,-1299.5 1075,-1305.5 1069,-1311.5 1063,-1311.5 1063,-1311.5 894,-1311.5 894,-1311.5 888,-1311.5 882,-1305.5 882,-1299.5 882,-1299.5 882,-1125.5 882,-1125.5 882,-1119.5 888,-1113.5 894,-1113.5"/>
<text text-anchor="middle" x="978.5" y="-1296.3" font-family="Times,serif" font-size="14.00">UserAnswearsController</text>
<polyline fill="none" stroke="black" points="882,-1288.5 1075,-1288.5 "/>
<text text-anchor="start" x="890" y="-1273.3" font-family="Times,serif" font-size="14.00">create</text>
<text text-anchor="start" x="890" y="-1258.3" font-family="Times,serif" font-size="14.00">edit</text>
<text text-anchor="start" x="890" y="-1243.3" font-family="Times,serif" font-size="14.00">index</text>
<text text-anchor="start" x="890" y="-1228.3" font-family="Times,serif" font-size="14.00">new</text>
<text text-anchor="start" x="890" y="-1213.3" font-family="Times,serif" font-size="14.00">show</text>
<text text-anchor="start" x="890" y="-1198.3" font-family="Times,serif" font-size="14.00">update</text>
<text text-anchor="start" x="890" y="-1183.3" font-family="Times,serif" font-size="14.00">useranswear_params</text>
<polyline fill="none" stroke="black" points="882,-1175.5 1075,-1175.5 "/>
<polyline fill="none" stroke="black" points="882,-1151.5 1075,-1151.5 "/>
<text text-anchor="start" x="890" y="-1136.3" font-family="Times,serif" font-size="14.00">_layout</text>
<text text-anchor="start" x="890" y="-1121.3" font-family="Times,serif" font-size="14.00">_layout_from_proc</text>
</g>
<!-- Users::ConfirmationsController -->
<g id="node24" class="node">
<title>Users::ConfirmationsController</title>
<path fill="none" stroke="black" d="M915,-84.5C915,-84.5 1132,-84.5 1132,-84.5 1138,-84.5 1144,-90.5 1144,-96.5 1144,-96.5 1144,-181.5 1144,-181.5 1144,-187.5 1138,-193.5 1132,-193.5 1132,-193.5 915,-193.5 915,-193.5 909,-193.5 903,-187.5 903,-181.5 903,-181.5 903,-96.5 903,-96.5 903,-90.5 909,-84.5 915,-84.5"/>
<text text-anchor="middle" x="1023.5" y="-178.3" font-family="Times,serif" font-size="14.00">Users::ConfirmationsController</text>
<polyline fill="none" stroke="black" points="903,-170.5 1144,-170.5 "/>
<polyline fill="none" stroke="black" points="903,-146.5 1144,-146.5 "/>
<polyline fill="none" stroke="black" points="903,-122.5 1144,-122.5 "/>
<text text-anchor="start" x="911" y="-107.3" font-family="Times,serif" font-size="14.00">_layout</text>
<text text-anchor="start" x="911" y="-92.3" font-family="Times,serif" font-size="14.00">_layout_from_proc</text>
</g>
<!-- Users::OmniauthCallbacksController -->
<g id="node25" class="node">
<title>Users::OmniauthCallbacksController</title>
<path fill="none" stroke="black" d="M768,-378.5C768,-378.5 1023,-378.5 1023,-378.5 1029,-378.5 1035,-384.5 1035,-390.5 1035,-390.5 1035,-503.5 1035,-503.5 1035,-509.5 1029,-515.5 1023,-515.5 1023,-515.5 768,-515.5 768,-515.5 762,-515.5 756,-509.5 756,-503.5 756,-503.5 756,-390.5 756,-390.5 756,-384.5 762,-378.5 768,-378.5"/>
<text text-anchor="middle" x="895.5" y="-500.3" font-family="Times,serif" font-size="14.00">Users::OmniauthCallbacksController</text>
<polyline fill="none" stroke="black" points="756,-492.5 1035,-492.5 "/>
<text text-anchor="start" x="764" y="-477.3" font-family="Times,serif" font-size="14.00">google_oauth2</text>
<polyline fill="none" stroke="black" points="756,-469.5 1035,-469.5 "/>
<text text-anchor="start" x="764" y="-454.3" font-family="Times,serif" font-size="14.00">after_omniauth_failure_path_for</text>
<text text-anchor="start" x="764" y="-439.3" font-family="Times,serif" font-size="14.00">after_sign_in_path_for</text>
<polyline fill="none" stroke="black" points="756,-431.5 1035,-431.5 "/>
<text text-anchor="start" x="764" y="-416.3" font-family="Times,serif" font-size="14.00">_layout</text>
<text text-anchor="start" x="764" y="-401.3" font-family="Times,serif" font-size="14.00">_layout_from_proc</text>
<text text-anchor="start" x="764" y="-386.3" font-family="Times,serif" font-size="14.00">auth</text>
</g>
<!-- Users::PasswordsController -->
<g id="node26" class="node">
<title>Users::PasswordsController</title>
<path fill="none" stroke="black" d="M1188,-84.5C1188,-84.5 1380,-84.5 1380,-84.5 1386,-84.5 1392,-90.5 1392,-96.5 1392,-96.5 1392,-181.5 1392,-181.5 1392,-187.5 1386,-193.5 1380,-193.5 1380,-193.5 1188,-193.5 1188,-193.5 1182,-193.5 1176,-187.5 1176,-181.5 1176,-181.5 1176,-96.5 1176,-96.5 1176,-90.5 1182,-84.5 1188,-84.5"/>
<text text-anchor="middle" x="1284" y="-178.3" font-family="Times,serif" font-size="14.00">Users::PasswordsController</text>
<polyline fill="none" stroke="black" points="1176,-170.5 1392,-170.5 "/>
<polyline fill="none" stroke="black" points="1176,-146.5 1392,-146.5 "/>
<polyline fill="none" stroke="black" points="1176,-122.5 1392,-122.5 "/>
<text text-anchor="start" x="1184" y="-107.3" font-family="Times,serif" font-size="14.00">_layout</text>
<text text-anchor="start" x="1184" y="-92.3" font-family="Times,serif" font-size="14.00">_layout_from_proc</text>
</g>
<!-- Users::RegistrationsController -->
<g id="node27" class="node">
<title>Users::RegistrationsController</title>
<path fill="none" stroke="black" d="M411,-1239.5C411,-1239.5 623,-1239.5 623,-1239.5 629,-1239.5 635,-1245.5 635,-1251.5 635,-1251.5 635,-1335.5 635,-1335.5 635,-1341.5 629,-1347.5 623,-1347.5 623,-1347.5 411,-1347.5 411,-1347.5 405,-1347.5 399,-1341.5 399,-1335.5 399,-1335.5 399,-1251.5 399,-1251.5 399,-1245.5 405,-1239.5 411,-1239.5"/>
<text text-anchor="middle" x="517" y="-1332.3" font-family="Times,serif" font-size="14.00">Users::RegistrationsController</text>
<polyline fill="none" stroke="black" points="399,-1324.5 635,-1324.5 "/>
<text text-anchor="start" x="407" y="-1309.3" font-family="Times,serif" font-size="14.00">update_resource</text>
<polyline fill="none" stroke="black" points="399,-1301.5 635,-1301.5 "/>
<polyline fill="none" stroke="black" points="399,-1277.5 635,-1277.5 "/>
<text text-anchor="start" x="407" y="-1262.3" font-family="Times,serif" font-size="14.00">_layout</text>
<text text-anchor="start" x="407" y="-1247.3" font-family="Times,serif" font-size="14.00">_layout_from_proc</text>
</g>
<!-- Users::SessionsController -->
<g id="node28" class="node">
<title>Users::SessionsController</title>
<path fill="none" stroke="black" d="M663,-21.5C663,-21.5 842,-21.5 842,-21.5 848,-21.5 854,-27.5 854,-33.5 854,-33.5 854,-132.5 854,-132.5 854,-138.5 848,-144.5 842,-144.5 842,-144.5 663,-144.5 663,-144.5 657,-144.5 651,-138.5 651,-132.5 651,-132.5 651,-33.5 651,-33.5 651,-27.5 657,-21.5 663,-21.5"/>
<text text-anchor="middle" x="752.5" y="-129.3" font-family="Times,serif" font-size="14.00">Users::SessionsController</text>
<polyline fill="none" stroke="black" points="651,-121.5 854,-121.5 "/>
<text text-anchor="start" x="659" y="-106.3" font-family="Times,serif" font-size="14.00">after_sign_in_path_for</text>
<text text-anchor="start" x="659" y="-91.3" font-family="Times,serif" font-size="14.00">after_sign_out_path_for</text>
<polyline fill="none" stroke="black" points="651,-83.5 854,-83.5 "/>
<polyline fill="none" stroke="black" points="651,-59.5 854,-59.5 "/>
<text text-anchor="start" x="659" y="-44.3" font-family="Times,serif" font-size="14.00">_layout</text>
<text text-anchor="start" x="659" y="-29.3" font-family="Times,serif" font-size="14.00">_layout_from_proc</text>
</g>
<!-- Users::UnlocksController -->
<g id="node29" class="node">
<title>Users::UnlocksController</title>
<path fill="none" stroke="black" d="M1293,-231.5C1293,-231.5 1466,-231.5 1466,-231.5 1472,-231.5 1478,-237.5 1478,-243.5 1478,-243.5 1478,-328.5 1478,-328.5 1478,-334.5 1472,-340.5 1466,-340.5 1466,-340.5 1293,-340.5 1293,-340.5 1287,-340.5 1281,-334.5 1281,-328.5 1281,-328.5 1281,-243.5 1281,-243.5 1281,-237.5 1287,-231.5 1293,-231.5"/>
<text text-anchor="middle" x="1379.5" y="-325.3" font-family="Times,serif" font-size="14.00">Users::UnlocksController</text>
<polyline fill="none" stroke="black" points="1281,-317.5 1478,-317.5 "/>
<polyline fill="none" stroke="black" points="1281,-293.5 1478,-293.5 "/>
<polyline fill="none" stroke="black" points="1281,-269.5 1478,-269.5 "/>
<text text-anchor="start" x="1289" y="-254.3" font-family="Times,serif" font-size="14.00">_layout</text>
<text text-anchor="start" x="1289" y="-239.3" font-family="Times,serif" font-size="14.00">_layout_from_proc</text>
</g>
<!-- UsersController -->
<g id="node30" class="node">
<title>UsersController</title>
<path fill="none" stroke="black" d="M768,-546.5C768,-546.5 938,-546.5 938,-546.5 944,-546.5 950,-552.5 950,-558.5 950,-558.5 950,-837.5 950,-837.5 950,-843.5 944,-849.5 938,-849.5 938,-849.5 768,-849.5 768,-849.5 762,-849.5 756,-843.5 756,-837.5 756,-837.5 756,-558.5 756,-558.5 756,-552.5 762,-546.5 768,-546.5"/>
<text text-anchor="middle" x="853" y="-834.3" font-family="Times,serif" font-size="14.00">UsersController</text>
<polyline fill="none" stroke="black" points="756,-826.5 950,-826.5 "/>
<text text-anchor="start" x="764" y="-811.3" font-family="Times,serif" font-size="14.00">create</text>
<text text-anchor="start" x="764" y="-796.3" font-family="Times,serif" font-size="14.00">destroy</text>
<text text-anchor="start" x="764" y="-781.3" font-family="Times,serif" font-size="14.00">edit</text>
<text text-anchor="start" x="764" y="-766.3" font-family="Times,serif" font-size="14.00">export_users</text>
<text text-anchor="start" x="764" y="-751.3" font-family="Times,serif" font-size="14.00">export_users_conditional</text>
<text text-anchor="start" x="764" y="-736.3" font-family="Times,serif" font-size="14.00">import_users</text>
<text text-anchor="start" x="764" y="-721.3" font-family="Times,serif" font-size="14.00">index</text>
<text text-anchor="start" x="764" y="-706.3" font-family="Times,serif" font-size="14.00">new</text>
<text text-anchor="start" x="764" y="-691.3" font-family="Times,serif" font-size="14.00">report_users</text>
<text text-anchor="start" x="764" y="-676.3" font-family="Times,serif" font-size="14.00">show</text>
<text text-anchor="start" x="764" y="-661.3" font-family="Times,serif" font-size="14.00">update</text>
<text text-anchor="start" x="764" y="-646.3" font-family="Times,serif" font-size="14.00">user_params</text>
<text text-anchor="start" x="764" y="-631.3" font-family="Times,serif" font-size="14.00">user_profile</text>
<polyline fill="none" stroke="black" points="756,-623.5 950,-623.5 "/>
<polyline fill="none" stroke="black" points="756,-599.5 950,-599.5 "/>
<text text-anchor="start" x="764" y="-584.3" font-family="Times,serif" font-size="14.00">_layout</text>
<text text-anchor="start" x="764" y="-569.3" font-family="Times,serif" font-size="14.00">_layout_from_proc</text>
<text text-anchor="start" x="764" y="-554.3" font-family="Times,serif" font-size="14.00">get_name</text>
</g>
</g>
</svg>
