<?xml version="1.0" encoding="UTF-8" standalone="no"?>
<!DOCTYPE svg PUBLIC "-//W3C//DTD SVG 1.1//EN"
 "http://www.w3.org/Graphics/SVG/1.1/DTD/svg11.dtd">
<!-- Generated by graphviz version 2.43.0 (0)
 -->
<!-- Title: models_diagram Pages: 1 -->
<svg width="2756pt" height="1489pt"
 viewBox="0.00 0.00 2755.69 1489.00" xmlns="http://www.w3.org/2000/svg" xmlns:xlink="http://www.w3.org/1999/xlink">
<g id="graph0" class="graph" transform="scale(1 1) rotate(0) translate(4 1485)">
<title>models_diagram</title>
<polygon fill="transparent" stroke="transparent" points="-4,4 -4,-1485 2751.69,-1485 2751.69,4 -4,4"/>
<!-- _diagram_info -->
<g id="node1" class="node">
<title>_diagram_info</title>
<text text-anchor="start" x="717.19" y="-1414.6" font-family="Times,serif" font-size="13.00">Models diagram</text>
<text text-anchor="start" x="717.19" y="-1400.6" font-family="Times,serif" font-size="13.00">Date: Jun 13 2023 &#45; 00:25</text>
<text text-anchor="start" x="717.19" y="-1386.6" font-family="Times,serif" font-size="13.00">Migration version: 20230426213818</text>
<text text-anchor="start" x="717.19" y="-1372.6" font-family="Times,serif" font-size="13.00">Generated by RailRoady 1.6.0</text>
<text text-anchor="start" x="717.19" y="-1358.6" font-family="Times,serif" font-size="13.00">http://railroady.prestonlee.com</text>
</g>
<!-- Answear -->
<g id="node2" class="node">
<title>Answear</title>
<path fill="none" stroke="black" d="M998.19,-1299.5C998.19,-1299.5 1171.19,-1299.5 1171.19,-1299.5 1177.19,-1299.5 1183.19,-1305.5 1183.19,-1311.5 1183.19,-1311.5 1183.19,-1468.5 1183.19,-1468.5 1183.19,-1474.5 1177.19,-1480.5 1171.19,-1480.5 1171.19,-1480.5 998.19,-1480.5 998.19,-1480.5 992.19,-1480.5 986.19,-1474.5 986.19,-1468.5 986.19,-1468.5 986.19,-1311.5 986.19,-1311.5 986.19,-1305.5 992.19,-1299.5 998.19,-1299.5"/>
<text text-anchor="middle" x="1084.69" y="-1465.3" font-family="Times,serif" font-size="14.00">Answear</text>
<polyline fill="none" stroke="black" points="986.19,-1457.5 1183.19,-1457.5 "/>
<text text-anchor="start" x="994.19" y="-1442.3" font-family="Times,serif" font-size="14.00">id :INTEGER</text>
<text text-anchor="start" x="994.19" y="-1427.3" font-family="Times,serif" font-size="14.00">assignment_id :INTEGER</text>
<text text-anchor="start" x="994.19" y="-1412.3" font-family="Times,serif" font-size="14.00">user_id :INTEGER</text>
<text text-anchor="start" x="994.19" y="-1397.3" font-family="Times,serif" font-size="14.00">school_id :INTEGER</text>
<text text-anchor="start" x="994.19" y="-1382.3" font-family="Times,serif" font-size="14.00">course_id :INTEGER</text>
<text text-anchor="start" x="994.19" y="-1367.3" font-family="Times,serif" font-size="14.00">created_at :datetime(6)</text>
<text text-anchor="start" x="994.19" y="-1352.3" font-family="Times,serif" font-size="14.00">updated_at :datetime(6)</text>
<text text-anchor="start" x="994.19" y="-1337.3" font-family="Times,serif" font-size="14.00">grade :float</text>
<text text-anchor="start" x="994.19" y="-1322.3" font-family="Times,serif" font-size="14.00">teacher_id :INTEGER</text>
<text text-anchor="start" x="994.19" y="-1307.3" font-family="Times,serif" font-size="14.00">scaled_grade :varchar</text>
</g>
<!-- Assignment -->
<g id="node4" class="node">
<title>Assignment</title>
<path fill="none" stroke="black" d="M482.69,-1065.5C482.69,-1065.5 646.69,-1065.5 646.69,-1065.5 652.69,-1065.5 658.69,-1071.5 658.69,-1077.5 658.69,-1077.5 658.69,-1249.5 658.69,-1249.5 658.69,-1255.5 652.69,-1261.5 646.69,-1261.5 646.69,-1261.5 482.69,-1261.5 482.69,-1261.5 476.69,-1261.5 470.69,-1255.5 470.69,-1249.5 470.69,-1249.5 470.69,-1077.5 470.69,-1077.5 470.69,-1071.5 476.69,-1065.5 482.69,-1065.5"/>
<text text-anchor="middle" x="564.69" y="-1246.3" font-family="Times,serif" font-size="14.00">Assignment</text>
<polyline fill="none" stroke="black" points="470.69,-1238.5 658.69,-1238.5 "/>
<text text-anchor="start" x="478.69" y="-1223.3" font-family="Times,serif" font-size="14.00">id :INTEGER</text>
<text text-anchor="start" x="478.69" y="-1208.3" font-family="Times,serif" font-size="14.00">title :varchar</text>
<text text-anchor="start" x="478.69" y="-1193.3" font-family="Times,serif" font-size="14.00">user_id :INTEGER</text>
<text text-anchor="start" x="478.69" y="-1178.3" font-family="Times,serif" font-size="14.00">created_at :datetime(6)</text>
<text text-anchor="start" x="478.69" y="-1163.3" font-family="Times,serif" font-size="14.00">updated_at :datetime(6)</text>
<text text-anchor="start" x="478.69" y="-1148.3" font-family="Times,serif" font-size="14.00">school_id :INTEGER</text>
<text text-anchor="start" x="478.69" y="-1133.3" font-family="Times,serif" font-size="14.00">course_id :INTEGER</text>
<text text-anchor="start" x="478.69" y="-1118.3" font-family="Times,serif" font-size="14.00">category :varchar</text>
<text text-anchor="start" x="478.69" y="-1103.3" font-family="Times,serif" font-size="14.00">start_time :datetime</text>
<text text-anchor="start" x="478.69" y="-1088.3" font-family="Times,serif" font-size="14.00">end_time :datetime</text>
<text text-anchor="start" x="478.69" y="-1073.3" font-family="Times,serif" font-size="14.00">countdown :datetime</text>
</g>
<!-- Answear&#45;&gt;Assignment -->
<g id="edge1" class="edge">
<title>Answear&#45;&gt;Assignment</title>
<path fill="none" stroke="#38d16b" d="M977.16,-1298.99C872.66,-1242.43 752.5,-1207.01 668.5,-1186.54"/>
<polygon fill="#38d16b" stroke="#38d16b" points="977.18,-1299 983.78,-1307.76 981.56,-1301.41 985.95,-1303.81 985.95,-1303.81 985.95,-1303.81 981.56,-1301.41 988.11,-1299.87 977.18,-1299 977.18,-1299"/>
<polygon fill="#38d16b" stroke="#38d16b" points="668.41,-1186.52 659.75,-1179.81 663.55,-1185.35 658.69,-1184.18 658.69,-1184.18 658.69,-1184.18 663.55,-1185.35 657.64,-1188.56 668.41,-1186.52 668.41,-1186.52"/>
</g>
<!-- User -->
<g id="node23" class="node">
<title>User</title>
<path fill="none" stroke="black" d="M1720.69,-275.5C1720.69,-275.5 1956.69,-275.5 1956.69,-275.5 1962.69,-275.5 1968.69,-281.5 1968.69,-287.5 1968.69,-287.5 1968.69,-549.5 1968.69,-549.5 1968.69,-555.5 1962.69,-561.5 1956.69,-561.5 1956.69,-561.5 1720.69,-561.5 1720.69,-561.5 1714.69,-561.5 1708.69,-555.5 1708.69,-549.5 1708.69,-549.5 1708.69,-287.5 1708.69,-287.5 1708.69,-281.5 1714.69,-275.5 1720.69,-275.5"/>
<text text-anchor="middle" x="1838.69" y="-546.3" font-family="Times,serif" font-size="14.00">User</text>
<polyline fill="none" stroke="black" points="1708.69,-538.5 1968.69,-538.5 "/>
<text text-anchor="start" x="1716.69" y="-523.3" font-family="Times,serif" font-size="14.00">id :INTEGER</text>
<text text-anchor="start" x="1716.69" y="-508.3" font-family="Times,serif" font-size="14.00">name :varchar</text>
<text text-anchor="start" x="1716.69" y="-493.3" font-family="Times,serif" font-size="14.00">email :varchar</text>
<text text-anchor="start" x="1716.69" y="-478.3" font-family="Times,serif" font-size="14.00">encrypted_password :varchar</text>
<text text-anchor="start" x="1716.69" y="-463.3" font-family="Times,serif" font-size="14.00">reset_password_token :varchar</text>
<text text-anchor="start" x="1716.69" y="-448.3" font-family="Times,serif" font-size="14.00">reset_password_sent_at :datetime</text>
<text text-anchor="start" x="1716.69" y="-433.3" font-family="Times,serif" font-size="14.00">remember_created_at :datetime</text>
<text text-anchor="start" x="1716.69" y="-418.3" font-family="Times,serif" font-size="14.00">created_at :datetime(6)</text>
<text text-anchor="start" x="1716.69" y="-403.3" font-family="Times,serif" font-size="14.00">updated_at :datetime(6)</text>
<text text-anchor="start" x="1716.69" y="-388.3" font-family="Times,serif" font-size="14.00">domain :varchar</text>
<text text-anchor="start" x="1716.69" y="-373.3" font-family="Times,serif" font-size="14.00">role :varchar</text>
<text text-anchor="start" x="1716.69" y="-358.3" font-family="Times,serif" font-size="14.00">school_id :INTEGER</text>
<text text-anchor="start" x="1716.69" y="-343.3" font-family="Times,serif" font-size="14.00">stripe_customer_id :varchar</text>
<text text-anchor="start" x="1716.69" y="-328.3" font-family="Times,serif" font-size="14.00">full_name :varchar</text>
<text text-anchor="start" x="1716.69" y="-313.3" font-family="Times,serif" font-size="14.00">uid :varchar</text>
<text text-anchor="start" x="1716.69" y="-298.3" font-family="Times,serif" font-size="14.00">avatar_url :varchar</text>
<text text-anchor="start" x="1716.69" y="-283.3" font-family="Times,serif" font-size="14.00">provider :varchar</text>
</g>
<!-- Answear&#45;&gt;User -->
<g id="edge2" class="edge">
<title>Answear&#45;&gt;User</title>
<path fill="none" stroke="#709b14" d="M1192.91,-1299.28C1264.85,-1277 1416.44,-1292.7 1475.69,-1281 1634.05,-1249.74 1819.69,-1325.92 1819.69,-1164.5 1819.69,-1164.5 1819.69,-1164.5 1819.69,-695.5 1819.69,-655.32 1821.72,-611.92 1824.45,-571.71"/>
<polygon fill="#709b14" stroke="#709b14" points="1192.73,-1299.35 1181.8,-1298.45 1188.02,-1301.02 1183.31,-1302.69 1183.31,-1302.69 1183.31,-1302.69 1188.02,-1301.02 1184.81,-1306.93 1192.73,-1299.35 1192.73,-1299.35"/>
<polygon fill="#709b14" stroke="#709b14" points="1824.46,-571.53 1829.65,-561.87 1824.81,-566.54 1825.16,-561.55 1825.16,-561.55 1825.16,-561.55 1824.81,-566.54 1820.67,-561.24 1824.46,-571.53 1824.46,-571.53"/>
</g>
<!-- UserAnswear -->
<g id="node24" class="node">
<title>UserAnswear</title>
<path fill="none" stroke="black" d="M945.69,-87.5C945.69,-87.5 1109.69,-87.5 1109.69,-87.5 1115.69,-87.5 1121.69,-93.5 1121.69,-99.5 1121.69,-99.5 1121.69,-211.5 1121.69,-211.5 1121.69,-217.5 1115.69,-223.5 1109.69,-223.5 1109.69,-223.5 945.69,-223.5 945.69,-223.5 939.69,-223.5 933.69,-217.5 933.69,-211.5 933.69,-211.5 933.69,-99.5 933.69,-99.5 933.69,-93.5 939.69,-87.5 945.69,-87.5"/>
<text text-anchor="middle" x="1027.69" y="-208.3" font-family="Times,serif" font-size="14.00">UserAnswear</text>
<polyline fill="none" stroke="black" points="933.69,-200.5 1121.69,-200.5 "/>
<text text-anchor="start" x="941.69" y="-185.3" font-family="Times,serif" font-size="14.00">id :INTEGER</text>
<text text-anchor="start" x="941.69" y="-170.3" font-family="Times,serif" font-size="14.00">user_id :INTEGER</text>
<text text-anchor="start" x="941.69" y="-155.3" font-family="Times,serif" font-size="14.00">question_id :INTEGER</text>
<text text-anchor="start" x="941.69" y="-140.3" font-family="Times,serif" font-size="14.00">option_id :INTEGER</text>
<text text-anchor="start" x="941.69" y="-125.3" font-family="Times,serif" font-size="14.00">answear_id :INTEGER</text>
<text text-anchor="start" x="941.69" y="-110.3" font-family="Times,serif" font-size="14.00">created_at :datetime(6)</text>
<text text-anchor="start" x="941.69" y="-95.3" font-family="Times,serif" font-size="14.00">updated_at :datetime(6)</text>
</g>
<!-- Answear&#45;&gt;UserAnswear -->
<g id="edge3" class="edge">
<title>Answear&#45;&gt;UserAnswear</title>
<path fill="none" stroke="#e46f60" d="M1140.99,-1289.93C1157.73,-1251.92 1171.69,-1207.37 1171.69,-1164.5 1171.69,-1164.5 1171.69,-1164.5 1171.69,-804.5 1171.69,-593.55 1098.07,-352.98 1056.11,-232.99"/>
<polygon fill="#e46f60" stroke="#e46f60" points="1140.81,-1290.33 1132.58,-1297.59 1138.74,-1294.89 1136.68,-1299.44 1136.68,-1299.44 1136.68,-1299.44 1138.74,-1294.89 1140.78,-1301.3 1140.81,-1290.33 1140.81,-1290.33"/>
<polygon fill="#e46f60" stroke="#e46f60" points="1056.09,-232.95 1057.02,-222.02 1054.43,-228.23 1052.77,-223.51 1052.77,-223.51 1052.77,-223.51 1054.43,-228.23 1048.53,-225.01 1056.09,-232.95 1056.09,-232.95"/>
</g>
<!-- ActionText::RichText -->
<g id="node25" class="node">
<title>ActionText::RichText</title>
<ellipse fill="none" stroke="black" cx="1027.69" cy="-18" rx="106.68" ry="18"/>
<text text-anchor="middle" x="1027.69" y="-14.3" font-family="Times,serif" font-size="14.00">ActionText::RichText</text>
</g>
<!-- Answear&#45;&gt;ActionText::RichText -->
<g id="edge4" class="edge">
<title>Answear&#45;&gt;ActionText::RichText</title>
<path fill="none" stroke="#98289f" d="M1191.97,-1299.25C1311.09,-1228.76 1461.69,-1295.42 1461.69,-1164.5 1461.69,-1164.5 1461.69,-1164.5 1461.69,-154.5 1461.69,-84.47 1253.18,-46.42 1125.21,-29.66"/>
<polygon fill="#98289f" stroke="#98289f" points="1191.94,-1299.27 1181.07,-1300.75 1187.7,-1301.92 1183.45,-1304.56 1183.45,-1304.56 1183.45,-1304.56 1187.7,-1301.92 1185.84,-1308.38 1191.94,-1299.27 1191.94,-1299.27"/>
<polygon fill="#98289f" stroke="#98289f" points="1124.91,-29.63 1115.57,-23.89 1119.95,-28.99 1115,-28.35 1115,-28.35 1115,-28.35 1119.95,-28.99 1114.42,-32.81 1124.91,-29.63 1124.91,-29.63"/>
<text text-anchor="middle" x="1523.69" y="-692.8" font-family="Times,serif" font-size="14.00">rich_text_content</text>
</g>
<!-- ActiveStorage::Attachment -->
<g id="node26" class="node">
<title>ActiveStorage::Attachment</title>
<ellipse fill="none" stroke="black" cx="397.69" cy="-155.5" rx="135.68" ry="18"/>
<text text-anchor="middle" x="397.69" y="-151.8" font-family="Times,serif" font-size="14.00">ActiveStorage::Attachment</text>
</g>
<!-- Answear&#45;&gt;ActiveStorage::Attachment -->
<g id="edge5" class="edge">
<title>Answear&#45;&gt;ActiveStorage::Attachment</title>
<path fill="none" stroke="#dbbfaa" d="M976.6,-1299.19C792.74,-1236.42 195.69,-1337.73 195.69,-1164.5 195.69,-1164.5 195.69,-1164.5 195.69,-586.5 195.69,-429.61 184.7,-371.89 272.69,-242 291.97,-213.54 324.15,-191.86 351.03,-177.44"/>
<polygon fill="#dbbfaa" stroke="#dbbfaa" points="976.69,-1299.23 984.49,-1306.94 981.38,-1300.97 986.06,-1302.72 986.06,-1302.72 986.06,-1302.72 981.38,-1300.97 987.63,-1298.5 976.69,-1299.23 976.69,-1299.23"/>
<polygon fill="#dbbfaa" stroke="#dbbfaa" points="351.04,-177.44 361.99,-176.83 355.48,-175.14 359.92,-172.83 359.92,-172.83 359.92,-172.83 355.48,-175.14 357.85,-168.84 351.04,-177.44 351.04,-177.44"/>
<text text-anchor="middle" x="251.19" y="-801.8" font-family="Times,serif" font-size="14.00">file_attachment</text>
</g>
<!-- ActiveStorage::Blob -->
<g id="node27" class="node">
<title>ActiveStorage::Blob</title>
<ellipse fill="none" stroke="black" cx="102.69" cy="-155.5" rx="102.88" ry="18"/>
<text text-anchor="middle" x="102.69" y="-151.8" font-family="Times,serif" font-size="14.00">ActiveStorage::Blob</text>
</g>
<!-- Answear&#45;&gt;ActiveStorage::Blob -->
<g id="edge6" class="edge">
<title>Answear&#45;&gt;ActiveStorage::Blob</title>
<path fill="none" stroke="#c78c49" d="M976.5,-1299.59C858.88,-1269.07 267.91,-1299.13 191.69,-1262 140.27,-1236.95 107.69,-1221.7 107.69,-1164.5 107.69,-1164.5 107.69,-1164.5 107.69,-417.5 107.69,-332.15 104.98,-231.12 103.55,-183.68"/>
<polygon fill="#c78c49" stroke="#c78c49" points="976.57,-1299.61 984.74,-1306.92 981.33,-1301.12 986.1,-1302.63 986.1,-1302.63 986.1,-1302.63 981.33,-1301.12 987.46,-1298.34 976.57,-1299.61 976.57,-1299.61"/>
<polygon fill="#c78c49" stroke="#c78c49" points="103.55,-183.59 107.74,-173.46 103.4,-178.6 103.25,-173.6 103.25,-173.6 103.25,-173.6 103.4,-178.6 98.75,-173.74 103.55,-183.59 103.55,-183.59"/>
<text text-anchor="middle" x="137.69" y="-801.8" font-family="Times,serif" font-size="14.00">file_blob</text>
</g>
<!-- ApplicationRecord -->
<g id="node3" class="node">
<title>ApplicationRecord</title>
<ellipse fill="none" stroke="black" cx="1296.69" cy="-1390" rx="95.58" ry="18"/>
<text text-anchor="middle" x="1296.69" y="-1386.3" font-family="Times,serif" font-size="14.00">ApplicationRecord</text>
</g>
<!-- Course -->
<g id="node6" class="node">
<title>Course</title>
<path fill="none" stroke="black" d="M749.19,-831.5C749.19,-831.5 938.19,-831.5 938.19,-831.5 944.19,-831.5 950.19,-837.5 950.19,-843.5 950.19,-843.5 950.19,-1015.5 950.19,-1015.5 950.19,-1021.5 944.19,-1027.5 938.19,-1027.5 938.19,-1027.5 749.19,-1027.5 749.19,-1027.5 743.19,-1027.5 737.19,-1021.5 737.19,-1015.5 737.19,-1015.5 737.19,-843.5 737.19,-843.5 737.19,-837.5 743.19,-831.5 749.19,-831.5"/>
<text text-anchor="middle" x="843.69" y="-1012.3" font-family="Times,serif" font-size="14.00">Course</text>
<polyline fill="none" stroke="black" points="737.19,-1004.5 950.19,-1004.5 "/>
<text text-anchor="start" x="745.19" y="-989.3" font-family="Times,serif" font-size="14.00">id :INTEGER</text>
<text text-anchor="start" x="745.19" y="-974.3" font-family="Times,serif" font-size="14.00">school_id :INTEGER</text>
<text text-anchor="start" x="745.19" y="-959.3" font-family="Times,serif" font-size="14.00">teacher_id :INTEGER</text>
<text text-anchor="start" x="745.19" y="-944.3" font-family="Times,serif" font-size="14.00">name :varchar</text>
<text text-anchor="start" x="745.19" y="-929.3" font-family="Times,serif" font-size="14.00">description :varchar</text>
<text text-anchor="start" x="745.19" y="-914.3" font-family="Times,serif" font-size="14.00">access_key :varchar</text>
<text text-anchor="start" x="745.19" y="-899.3" font-family="Times,serif" font-size="14.00">created_at :datetime(6)</text>
<text text-anchor="start" x="745.19" y="-884.3" font-family="Times,serif" font-size="14.00">updated_at :datetime(6)</text>
<text text-anchor="start" x="745.19" y="-869.3" font-family="Times,serif" font-size="14.00">price :INTEGER</text>
<text text-anchor="start" x="745.19" y="-854.3" font-family="Times,serif" font-size="14.00">stripe_product_id :varchar</text>
<text text-anchor="start" x="745.19" y="-839.3" font-family="Times,serif" font-size="14.00">grading_scale_id :INTEGER</text>
</g>
<!-- Assignment&#45;&gt;Course -->
<g id="edge7" class="edge">
<title>Assignment&#45;&gt;Course</title>
<path fill="none" stroke="#0bce31" d="M666.49,-1077.85C686.85,-1060.92 708.38,-1043.02 729.14,-1025.75"/>
<polygon fill="#0bce31" stroke="#0bce31" points="666.45,-1077.89 655.88,-1080.82 662.6,-1081.08 658.76,-1084.28 658.76,-1084.28 658.76,-1084.28 662.6,-1081.08 661.64,-1087.74 666.45,-1077.89 666.45,-1077.89"/>
<polygon fill="#0bce31" stroke="#0bce31" points="729.37,-1025.57 739.93,-1022.63 733.21,-1022.37 737.06,-1019.17 737.06,-1019.17 737.06,-1019.17 733.21,-1022.37 734.18,-1015.71 729.37,-1025.57 729.37,-1025.57"/>
</g>
<!-- Question -->
<g id="node19" class="node">
<title>Question</title>
<path fill="none" stroke="black" d="M551.19,-350.5C551.19,-350.5 724.19,-350.5 724.19,-350.5 730.19,-350.5 736.19,-356.5 736.19,-362.5 736.19,-362.5 736.19,-474.5 736.19,-474.5 736.19,-480.5 730.19,-486.5 724.19,-486.5 724.19,-486.5 551.19,-486.5 551.19,-486.5 545.19,-486.5 539.19,-480.5 539.19,-474.5 539.19,-474.5 539.19,-362.5 539.19,-362.5 539.19,-356.5 545.19,-350.5 551.19,-350.5"/>
<text text-anchor="middle" x="637.69" y="-471.3" font-family="Times,serif" font-size="14.00">Question</text>
<polyline fill="none" stroke="black" points="539.19,-463.5 736.19,-463.5 "/>
<text text-anchor="start" x="547.19" y="-448.3" font-family="Times,serif" font-size="14.00">id :INTEGER</text>
<text text-anchor="start" x="547.19" y="-433.3" font-family="Times,serif" font-size="14.00">assignment_id :INTEGER</text>
<text text-anchor="start" x="547.19" y="-418.3" font-family="Times,serif" font-size="14.00">text :varchar</text>
<text text-anchor="start" x="547.19" y="-403.3" font-family="Times,serif" font-size="14.00">question_type :varchar</text>
<text text-anchor="start" x="547.19" y="-388.3" font-family="Times,serif" font-size="14.00">created_at :datetime(6)</text>
<text text-anchor="start" x="547.19" y="-373.3" font-family="Times,serif" font-size="14.00">updated_at :datetime(6)</text>
<text text-anchor="start" x="547.19" y="-358.3" font-family="Times,serif" font-size="14.00">points :INTEGER</text>
</g>
<!-- Assignment&#45;&gt;Question -->
<g id="edge8" class="edge">
<title>Assignment&#45;&gt;Question</title>
<path fill="none" stroke="#00f1ad" d="M540.36,-1055.36C519.18,-943.3 497.22,-763.16 534.69,-613 544.93,-571.99 565.67,-530.14 585.88,-495.9"/>
<polygon fill="#00f1ad" stroke="#00f1ad" points="540.39,-1055.5 537.86,-1066.17 541.33,-1060.41 542.28,-1065.32 542.28,-1065.32 542.28,-1065.32 541.33,-1060.41 546.7,-1064.47 540.39,-1055.5 540.39,-1055.5"/>
<polygon fill="#00f1ad" stroke="#00f1ad" points="586.13,-495.48 595.13,-489.22 588.7,-491.19 591.27,-486.9 591.27,-486.9 591.27,-486.9 588.7,-491.19 587.41,-484.59 586.13,-495.48 586.13,-495.48"/>
</g>
<!-- Assignment&#45;&gt;ActionText::RichText -->
<g id="edge9" class="edge">
<title>Assignment&#45;&gt;ActionText::RichText</title>
<path fill="none" stroke="#ccd85f" d="M513.58,-1055.86C469.52,-974.48 398.68,-865.25 307.69,-798 287.01,-782.71 268.8,-800.05 252.69,-780 199.13,-713.32 233.69,-674.03 233.69,-588.5 233.69,-588.5 233.69,-588.5 233.69,-154.5 233.69,-123.33 228.69,-106.89 252.69,-87 302.36,-45.84 709.42,-28.25 912.86,-21.96"/>
<polygon fill="#ccd85f" stroke="#ccd85f" points="513.83,-1056.32 514.59,-1067.26 516.19,-1060.73 518.55,-1065.14 518.55,-1065.14 518.55,-1065.14 516.19,-1060.73 522.52,-1063.01 513.83,-1056.32 513.83,-1056.32"/>
<polygon fill="#ccd85f" stroke="#ccd85f" points="912.99,-21.96 923.12,-26.15 917.99,-21.81 922.98,-21.66 922.98,-21.66 922.98,-21.66 917.99,-21.81 922.85,-17.16 912.99,-21.96 912.99,-21.96"/>
<text text-anchor="middle" x="286.19" y="-583.8" font-family="Times,serif" font-size="14.00">rich_text_body</text>
</g>
<!-- Bill -->
<g id="node5" class="node">
<title>Bill</title>
<path fill="none" stroke="black" d="M1615.69,-628.5C1615.69,-628.5 1779.69,-628.5 1779.69,-628.5 1785.69,-628.5 1791.69,-634.5 1791.69,-640.5 1791.69,-640.5 1791.69,-752.5 1791.69,-752.5 1791.69,-758.5 1785.69,-764.5 1779.69,-764.5 1779.69,-764.5 1615.69,-764.5 1615.69,-764.5 1609.69,-764.5 1603.69,-758.5 1603.69,-752.5 1603.69,-752.5 1603.69,-640.5 1603.69,-640.5 1603.69,-634.5 1609.69,-628.5 1615.69,-628.5"/>
<text text-anchor="middle" x="1697.69" y="-749.3" font-family="Times,serif" font-size="14.00">Bill</text>
<polyline fill="none" stroke="black" points="1603.69,-741.5 1791.69,-741.5 "/>
<text text-anchor="start" x="1611.69" y="-726.3" font-family="Times,serif" font-size="14.00">id :INTEGER</text>
<text text-anchor="start" x="1611.69" y="-711.3" font-family="Times,serif" font-size="14.00">name :varchar</text>
<text text-anchor="start" x="1611.69" y="-696.3" font-family="Times,serif" font-size="14.00">email :varchar</text>
<text text-anchor="start" x="1611.69" y="-681.3" font-family="Times,serif" font-size="14.00">product_id :varchar</text>
<text text-anchor="start" x="1611.69" y="-666.3" font-family="Times,serif" font-size="14.00">amount :INTEGER</text>
<text text-anchor="start" x="1611.69" y="-651.3" font-family="Times,serif" font-size="14.00">created_at :datetime(6)</text>
<text text-anchor="start" x="1611.69" y="-636.3" font-family="Times,serif" font-size="14.00">updated_at :datetime(6)</text>
</g>
<!-- Bill&#45;&gt;User -->
<g id="edge10" class="edge">
<title>Bill&#45;&gt;User</title>
<path fill="none" stroke="#00d7c5" d="M1736.72,-619.1C1744.48,-603.92 1752.87,-587.5 1761.39,-570.81"/>
<polygon fill="#00d7c5" stroke="#00d7c5" points="1736.55,-619.43 1728,-626.29 1734.28,-623.88 1732,-628.34 1732,-628.34 1732,-628.34 1734.28,-623.88 1736.01,-630.38 1736.55,-619.43 1736.55,-619.43"/>
<polygon fill="#00d7c5" stroke="#00d7c5" points="1761.59,-570.42 1770.15,-563.56 1763.87,-565.97 1766.14,-561.51 1766.14,-561.51 1766.14,-561.51 1763.87,-565.97 1762.13,-559.47 1761.59,-570.42 1761.59,-570.42"/>
</g>
<!-- Enrollment -->
<g id="node7" class="node">
<title>Enrollment</title>
<path fill="none" stroke="black" d="M1249.69,-643.5C1249.69,-643.5 1413.69,-643.5 1413.69,-643.5 1419.69,-643.5 1425.69,-649.5 1425.69,-655.5 1425.69,-655.5 1425.69,-737.5 1425.69,-737.5 1425.69,-743.5 1419.69,-749.5 1413.69,-749.5 1413.69,-749.5 1249.69,-749.5 1249.69,-749.5 1243.69,-749.5 1237.69,-743.5 1237.69,-737.5 1237.69,-737.5 1237.69,-655.5 1237.69,-655.5 1237.69,-649.5 1243.69,-643.5 1249.69,-643.5"/>
<text text-anchor="middle" x="1331.69" y="-734.3" font-family="Times,serif" font-size="14.00">Enrollment</text>
<polyline fill="none" stroke="black" points="1237.69,-726.5 1425.69,-726.5 "/>
<text text-anchor="start" x="1245.69" y="-711.3" font-family="Times,serif" font-size="14.00">id :INTEGER</text>
<text text-anchor="start" x="1245.69" y="-696.3" font-family="Times,serif" font-size="14.00">user_id :INTEGER</text>
<text text-anchor="start" x="1245.69" y="-681.3" font-family="Times,serif" font-size="14.00">course_id :INTEGER</text>
<text text-anchor="start" x="1245.69" y="-666.3" font-family="Times,serif" font-size="14.00">created_at :datetime(6)</text>
<text text-anchor="start" x="1245.69" y="-651.3" font-family="Times,serif" font-size="14.00">updated_at :datetime(6)</text>
</g>
<!-- Course&#45;&gt;Enrollment -->
<g id="edge14" class="edge">
<title>Course&#45;&gt;Enrollment</title>
<path fill="none" stroke="#fd7c89" d="M960.24,-909.51C1039.03,-892.87 1143.01,-863.25 1223.69,-813 1247.14,-798.39 1268.85,-777.42 1286.55,-757.34"/>
<polygon fill="#fd7c89" stroke="#fd7c89" points="960.06,-909.55 949.36,-907.17 955.17,-910.56 950.27,-911.58 950.27,-911.58 950.27,-911.58 955.17,-910.56 951.18,-915.98 960.06,-909.55 960.06,-909.55"/>
<polygon fill="#fd7c89" stroke="#fd7c89" points="1286.61,-757.28 1296.55,-752.65 1289.87,-753.5 1293.14,-749.71 1293.14,-749.71 1293.14,-749.71 1289.87,-753.5 1289.73,-746.77 1286.61,-757.28 1286.61,-757.28"/>
</g>
<!-- GradingScale -->
<g id="node8" class="node">
<title>GradingScale</title>
<path fill="none" stroke="black" d="M761.69,-643.5C761.69,-643.5 925.69,-643.5 925.69,-643.5 931.69,-643.5 937.69,-649.5 937.69,-655.5 937.69,-655.5 937.69,-737.5 937.69,-737.5 937.69,-743.5 931.69,-749.5 925.69,-749.5 925.69,-749.5 761.69,-749.5 761.69,-749.5 755.69,-749.5 749.69,-743.5 749.69,-737.5 749.69,-737.5 749.69,-655.5 749.69,-655.5 749.69,-649.5 755.69,-643.5 761.69,-643.5"/>
<text text-anchor="middle" x="843.69" y="-734.3" font-family="Times,serif" font-size="14.00">GradingScale</text>
<polyline fill="none" stroke="black" points="749.69,-726.5 937.69,-726.5 "/>
<text text-anchor="start" x="757.69" y="-711.3" font-family="Times,serif" font-size="14.00">id :INTEGER</text>
<text text-anchor="start" x="757.69" y="-696.3" font-family="Times,serif" font-size="14.00">name :varchar</text>
<text text-anchor="start" x="757.69" y="-681.3" font-family="Times,serif" font-size="14.00">created_at :datetime(6)</text>
<text text-anchor="start" x="757.69" y="-666.3" font-family="Times,serif" font-size="14.00">updated_at :datetime(6)</text>
<text text-anchor="start" x="757.69" y="-651.3" font-family="Times,serif" font-size="14.00">custom :varchar</text>
</g>
<!-- Course&#45;&gt;GradingScale -->
<g id="edge16" class="edge">
<title>Course&#45;&gt;GradingScale</title>
<path fill="none" stroke="#af67b3" d="M843.69,-820.98C843.69,-800.04 843.69,-778.74 843.69,-759.87"/>
<polygon fill="#af67b3" stroke="#af67b3" points="843.69,-821.2 839.19,-831.2 843.69,-826.2 843.69,-831.2 843.69,-831.2 843.69,-831.2 843.69,-826.2 848.19,-831.2 843.69,-821.2 843.69,-821.2"/>
<polygon fill="#af67b3" stroke="#af67b3" points="843.69,-759.65 848.19,-749.65 843.69,-754.65 843.69,-749.65 843.69,-749.65 843.69,-749.65 843.69,-754.65 839.19,-749.65 843.69,-759.65 843.69,-759.65"/>
</g>
<!-- Lesson -->
<g id="node11" class="node">
<title>Lesson</title>
<path fill="none" stroke="black" d="M273.69,-613.5C273.69,-613.5 437.69,-613.5 437.69,-613.5 443.69,-613.5 449.69,-619.5 449.69,-625.5 449.69,-625.5 449.69,-767.5 449.69,-767.5 449.69,-773.5 443.69,-779.5 437.69,-779.5 437.69,-779.5 273.69,-779.5 273.69,-779.5 267.69,-779.5 261.69,-773.5 261.69,-767.5 261.69,-767.5 261.69,-625.5 261.69,-625.5 261.69,-619.5 267.69,-613.5 273.69,-613.5"/>
<text text-anchor="middle" x="355.69" y="-764.3" font-family="Times,serif" font-size="14.00">Lesson</text>
<polyline fill="none" stroke="black" points="261.69,-756.5 449.69,-756.5 "/>
<text text-anchor="start" x="269.69" y="-741.3" font-family="Times,serif" font-size="14.00">id :INTEGER</text>
<text text-anchor="start" x="269.69" y="-726.3" font-family="Times,serif" font-size="14.00">course_id :INTEGER</text>
<text text-anchor="start" x="269.69" y="-711.3" font-family="Times,serif" font-size="14.00">school_id :INTEGER</text>
<text text-anchor="start" x="269.69" y="-696.3" font-family="Times,serif" font-size="14.00">teacher_id :INTEGER</text>
<text text-anchor="start" x="269.69" y="-681.3" font-family="Times,serif" font-size="14.00">name :varchar</text>
<text text-anchor="start" x="269.69" y="-666.3" font-family="Times,serif" font-size="14.00">text :varchar</text>
<text text-anchor="start" x="269.69" y="-651.3" font-family="Times,serif" font-size="14.00">created_at :datetime(6)</text>
<text text-anchor="start" x="269.69" y="-636.3" font-family="Times,serif" font-size="14.00">updated_at :datetime(6)</text>
<text text-anchor="start" x="269.69" y="-621.3" font-family="Times,serif" font-size="14.00">updated_by :INTEGER</text>
</g>
<!-- Course&#45;&gt;Lesson -->
<g id="edge13" class="edge">
<title>Course&#45;&gt;Lesson</title>
<path fill="none" stroke="#c67fa0" d="M727.01,-899.87C658.9,-880.57 572.69,-851.55 501.69,-813 486.97,-805.01 472.23,-795.52 458.07,-785.46"/>
<polygon fill="#c67fa0" stroke="#c67fa0" points="727.29,-899.95 735.7,-906.98 732.1,-901.3 736.92,-902.65 736.92,-902.65 736.92,-902.65 732.1,-901.3 738.13,-898.32 727.29,-899.95 727.29,-899.95"/>
<polygon fill="#c67fa0" stroke="#c67fa0" points="457.91,-785.34 452.45,-775.84 453.86,-782.41 449.81,-779.48 449.81,-779.48 449.81,-779.48 453.86,-782.41 447.17,-783.13 457.91,-785.34 457.91,-785.34"/>
</g>
<!-- Resource -->
<g id="node20" class="node">
<title>Resource</title>
<path fill="none" stroke="black" d="M317.19,-335.5C317.19,-335.5 504.19,-335.5 504.19,-335.5 510.19,-335.5 516.19,-341.5 516.19,-347.5 516.19,-347.5 516.19,-489.5 516.19,-489.5 516.19,-495.5 510.19,-501.5 504.19,-501.5 504.19,-501.5 317.19,-501.5 317.19,-501.5 311.19,-501.5 305.19,-495.5 305.19,-489.5 305.19,-489.5 305.19,-347.5 305.19,-347.5 305.19,-341.5 311.19,-335.5 317.19,-335.5"/>
<text text-anchor="middle" x="410.69" y="-486.3" font-family="Times,serif" font-size="14.00">Resource</text>
<polyline fill="none" stroke="black" points="305.19,-478.5 516.19,-478.5 "/>
<text text-anchor="start" x="313.19" y="-463.3" font-family="Times,serif" font-size="14.00">id :INTEGER</text>
<text text-anchor="start" x="313.19" y="-448.3" font-family="Times,serif" font-size="14.00">resourceable_id :INTEGER</text>
<text text-anchor="start" x="313.19" y="-433.3" font-family="Times,serif" font-size="14.00">resourceable_type :varchar</text>
<text text-anchor="start" x="313.19" y="-418.3" font-family="Times,serif" font-size="14.00">name :varchar</text>
<text text-anchor="start" x="313.19" y="-403.3" font-family="Times,serif" font-size="14.00">url :varchar</text>
<text text-anchor="start" x="313.19" y="-388.3" font-family="Times,serif" font-size="14.00">created_at :datetime(6)</text>
<text text-anchor="start" x="313.19" y="-373.3" font-family="Times,serif" font-size="14.00">updated_at :datetime(6)</text>
<text text-anchor="start" x="313.19" y="-358.3" font-family="Times,serif" font-size="14.00">user_id :INTEGER</text>
<text text-anchor="start" x="313.19" y="-343.3" font-family="Times,serif" font-size="14.00">school_id :INTEGER</text>
</g>
<!-- Course&#45;&gt;Resource -->
<g id="edge15" class="edge">
<title>Course&#45;&gt;Resource</title>
<path fill="none" stroke="#6937e7" d="M727.07,-896.9C662.5,-874.01 585.3,-836.89 534.69,-780 498.79,-739.64 458.26,-604.2 433.6,-511.32"/>
<polygon fill="#6937e7" stroke="#6937e7" points="727.46,-897.04 735.43,-904.57 732.18,-898.68 736.91,-900.32 736.91,-900.32 736.91,-900.32 732.18,-898.68 738.38,-896.07 727.46,-897.04 727.46,-897.04"/>
<polygon fill="#6937e7" stroke="#6937e7" points="433.59,-511.3 435.39,-500.48 432.32,-506.46 431.04,-501.63 431.04,-501.63 431.04,-501.63 432.32,-506.46 426.69,-502.78 433.59,-511.3 433.59,-511.3"/>
</g>
<!-- School -->
<g id="node22" class="node">
<title>School</title>
<path fill="none" stroke="black" d="M967.69,-643.5C967.69,-643.5 1131.69,-643.5 1131.69,-643.5 1137.69,-643.5 1143.69,-649.5 1143.69,-655.5 1143.69,-655.5 1143.69,-737.5 1143.69,-737.5 1143.69,-743.5 1137.69,-749.5 1131.69,-749.5 1131.69,-749.5 967.69,-749.5 967.69,-749.5 961.69,-749.5 955.69,-743.5 955.69,-737.5 955.69,-737.5 955.69,-655.5 955.69,-655.5 955.69,-649.5 961.69,-643.5 967.69,-643.5"/>
<text text-anchor="middle" x="1049.69" y="-734.3" font-family="Times,serif" font-size="14.00">School</text>
<polyline fill="none" stroke="black" points="955.69,-726.5 1143.69,-726.5 "/>
<text text-anchor="start" x="963.69" y="-711.3" font-family="Times,serif" font-size="14.00">id :INTEGER</text>
<text text-anchor="start" x="963.69" y="-696.3" font-family="Times,serif" font-size="14.00">name :varchar</text>
<text text-anchor="start" x="963.69" y="-681.3" font-family="Times,serif" font-size="14.00">domain :varchar</text>
<text text-anchor="start" x="963.69" y="-666.3" font-family="Times,serif" font-size="14.00">created_at :datetime(6)</text>
<text text-anchor="start" x="963.69" y="-651.3" font-family="Times,serif" font-size="14.00">updated_at :datetime(6)</text>
</g>
<!-- Course&#45;&gt;School -->
<g id="edge11" class="edge">
<title>Course&#45;&gt;School</title>
<path fill="none" stroke="#02aec0" d="M937.21,-823.63C957.51,-800.87 978.29,-777.56 996.39,-757.27"/>
<polygon fill="#02aec0" stroke="#02aec0" points="937.11,-823.74 927.1,-828.21 933.78,-827.47 930.46,-831.2 930.46,-831.2 930.46,-831.2 933.78,-827.47 933.81,-834.2 937.11,-823.74 937.11,-823.74"/>
<polygon fill="#02aec0" stroke="#02aec0" points="996.53,-757.11 1006.55,-752.64 999.86,-753.38 1003.19,-749.65 1003.19,-749.65 1003.19,-749.65 999.86,-753.38 999.83,-746.65 996.53,-757.11 996.53,-757.11"/>
</g>
<!-- Course&#45;&gt;User -->
<g id="edge12" class="edge">
<title>Course&#45;&gt;User</title>
<path fill="none" stroke="#3be6bb" d="M960.1,-894.38C1023.65,-870.83 1099.91,-833.9 1152.69,-780 1209.75,-721.74 1167.68,-667.1 1228.69,-613 1360.58,-496.05 1563.28,-449.74 1698.37,-431.43"/>
<polygon fill="#3be6bb" stroke="#3be6bb" points="959.81,-894.48 948.88,-893.67 955.12,-896.19 950.42,-897.9 950.42,-897.9 950.42,-897.9 955.12,-896.19 951.96,-902.13 959.81,-894.48 959.81,-894.48"/>
<polygon fill="#3be6bb" stroke="#3be6bb" points="1698.47,-431.41 1708.97,-434.57 1703.43,-430.76 1708.39,-430.11 1708.39,-430.11 1708.39,-430.11 1703.43,-430.76 1707.8,-425.64 1698.47,-431.41 1698.47,-431.41"/>
</g>
<!-- Enrollment&#45;&gt;User -->
<g id="edge17" class="edge">
<title>Enrollment&#45;&gt;User</title>
<path fill="none" stroke="#73af09" d="M1403.64,-637.4C1415.42,-628.82 1427.69,-620.39 1439.69,-613 1522.53,-561.99 1620.8,-514.19 1699.09,-478.86"/>
<polygon fill="#73af09" stroke="#73af09" points="1403.62,-637.42 1392.91,-639.74 1399.6,-640.39 1395.58,-643.36 1395.58,-643.36 1395.58,-643.36 1399.6,-640.39 1398.26,-646.98 1403.62,-637.42 1403.62,-637.42"/>
<polygon fill="#73af09" stroke="#73af09" points="1699.42,-478.72 1710.38,-478.72 1703.98,-476.67 1708.54,-474.62 1708.54,-474.62 1708.54,-474.62 1703.98,-476.67 1706.69,-470.51 1699.42,-478.72 1699.42,-478.72"/>
</g>
<!-- Group -->
<g id="node9" class="node">
<title>Group</title>
<path fill="none" stroke="black" d="M1898.19,-613.5C1898.19,-613.5 2079.19,-613.5 2079.19,-613.5 2085.19,-613.5 2091.19,-619.5 2091.19,-625.5 2091.19,-625.5 2091.19,-767.5 2091.19,-767.5 2091.19,-773.5 2085.19,-779.5 2079.19,-779.5 2079.19,-779.5 1898.19,-779.5 1898.19,-779.5 1892.19,-779.5 1886.19,-773.5 1886.19,-767.5 1886.19,-767.5 1886.19,-625.5 1886.19,-625.5 1886.19,-619.5 1892.19,-613.5 1898.19,-613.5"/>
<text text-anchor="middle" x="1988.69" y="-764.3" font-family="Times,serif" font-size="14.00">Group</text>
<polyline fill="none" stroke="black" points="1886.19,-756.5 2091.19,-756.5 "/>
<text text-anchor="start" x="1894.19" y="-741.3" font-family="Times,serif" font-size="14.00">id :INTEGER</text>
<text text-anchor="start" x="1894.19" y="-726.3" font-family="Times,serif" font-size="14.00">school_id :INTEGER</text>
<text text-anchor="start" x="1894.19" y="-711.3" font-family="Times,serif" font-size="14.00">admin_id :INTEGER</text>
<text text-anchor="start" x="1894.19" y="-696.3" font-family="Times,serif" font-size="14.00">name :varchar</text>
<text text-anchor="start" x="1894.19" y="-681.3" font-family="Times,serif" font-size="14.00">description :varchar</text>
<text text-anchor="start" x="1894.19" y="-666.3" font-family="Times,serif" font-size="14.00">price :INTEGER</text>
<text text-anchor="start" x="1894.19" y="-651.3" font-family="Times,serif" font-size="14.00">stripe_product_id :varchar</text>
<text text-anchor="start" x="1894.19" y="-636.3" font-family="Times,serif" font-size="14.00">created_at :datetime(6)</text>
<text text-anchor="start" x="1894.19" y="-621.3" font-family="Times,serif" font-size="14.00">updated_at :datetime(6)</text>
</g>
<!-- Group&#45;&gt;User -->
<g id="edge18" class="edge">
<title>Group&#45;&gt;User</title>
<path fill="none" stroke="#30f60a" d="M1939.23,-604.5C1933.27,-593.53 1927.06,-582.11 1920.79,-570.56"/>
<polygon fill="#30f60a" stroke="#30f60a" points="1939.32,-604.65 1940.14,-615.59 1941.7,-609.05 1944.09,-613.44 1944.09,-613.44 1944.09,-613.44 1941.7,-609.05 1948.05,-611.29 1939.32,-604.65 1939.32,-604.65"/>
<polygon fill="#30f60a" stroke="#30f60a" points="1920.76,-570.5 1919.94,-559.57 1918.37,-566.11 1915.98,-561.72 1915.98,-561.72 1915.98,-561.72 1918.37,-566.11 1912.03,-563.87 1920.76,-570.5 1920.76,-570.5"/>
</g>
<!-- GroupEnrollment -->
<g id="node10" class="node">
<title>GroupEnrollment</title>
<path fill="none" stroke="black" d="M1871.69,-876.5C1871.69,-876.5 2035.69,-876.5 2035.69,-876.5 2041.69,-876.5 2047.69,-882.5 2047.69,-888.5 2047.69,-888.5 2047.69,-970.5 2047.69,-970.5 2047.69,-976.5 2041.69,-982.5 2035.69,-982.5 2035.69,-982.5 1871.69,-982.5 1871.69,-982.5 1865.69,-982.5 1859.69,-976.5 1859.69,-970.5 1859.69,-970.5 1859.69,-888.5 1859.69,-888.5 1859.69,-882.5 1865.69,-876.5 1871.69,-876.5"/>
<text text-anchor="middle" x="1953.69" y="-967.3" font-family="Times,serif" font-size="14.00">GroupEnrollment</text>
<polyline fill="none" stroke="black" points="1859.69,-959.5 2047.69,-959.5 "/>
<text text-anchor="start" x="1867.69" y="-944.3" font-family="Times,serif" font-size="14.00">id :INTEGER</text>
<text text-anchor="start" x="1867.69" y="-929.3" font-family="Times,serif" font-size="14.00">user_id :INTEGER</text>
<text text-anchor="start" x="1867.69" y="-914.3" font-family="Times,serif" font-size="14.00">group_id :INTEGER</text>
<text text-anchor="start" x="1867.69" y="-899.3" font-family="Times,serif" font-size="14.00">created_at :datetime(6)</text>
<text text-anchor="start" x="1867.69" y="-884.3" font-family="Times,serif" font-size="14.00">updated_at :datetime(6)</text>
</g>
<!-- GroupEnrollment&#45;&gt;Group -->
<g id="edge20" class="edge">
<title>GroupEnrollment&#45;&gt;Group</title>
<path fill="none" stroke="#f76f34" d="M1963.1,-866.42C1966.66,-842.92 1970.79,-815.64 1974.68,-789.94"/>
<polygon fill="#f76f34" stroke="#f76f34" points="1963.09,-866.48 1957.14,-875.7 1962.34,-871.43 1961.59,-876.37 1961.59,-876.37 1961.59,-876.37 1962.34,-871.43 1966.04,-877.05 1963.09,-866.48 1963.09,-866.48"/>
<polygon fill="#f76f34" stroke="#f76f34" points="1974.72,-789.69 1980.67,-780.48 1975.47,-784.75 1976.22,-779.81 1976.22,-779.81 1976.22,-779.81 1975.47,-784.75 1971.77,-779.13 1974.72,-789.69 1974.72,-789.69"/>
</g>
<!-- GroupEnrollment&#45;&gt;User -->
<g id="edge19" class="edge">
<title>GroupEnrollment&#45;&gt;User</title>
<path fill="none" stroke="#5001dc" d="M1915.93,-867.21C1901.64,-841.22 1886.67,-810.03 1877.69,-780 1857.8,-713.44 1847.81,-637.28 1842.88,-572.17"/>
<polygon fill="#5001dc" stroke="#5001dc" points="1916.07,-867.45 1917.02,-878.37 1918.51,-871.81 1920.95,-876.18 1920.95,-876.18 1920.95,-876.18 1918.51,-871.81 1924.88,-873.98 1916.07,-867.45 1916.07,-867.45"/>
<polygon fill="#5001dc" stroke="#5001dc" points="1842.86,-571.79 1846.62,-561.49 1842.5,-566.8 1842.13,-561.81 1842.13,-561.81 1842.13,-561.81 1842.5,-566.8 1837.65,-562.14 1842.86,-571.79 1842.86,-571.79"/>
</g>
<!-- Lesson&#45;&gt;Resource -->
<g id="edge21" class="edge">
<title>Lesson&#45;&gt;Resource</title>
<path fill="none" stroke="#f36153" d="M374.05,-603.37C379.94,-573.84 386.45,-541.14 392.34,-511.61"/>
<polygon fill="#f36153" stroke="#f36153" points="374,-603.63 367.63,-612.56 373.02,-608.53 372.04,-613.44 372.04,-613.44 372.04,-613.44 373.02,-608.53 376.46,-614.32 374,-603.63 374,-603.63"/>
<polygon fill="#f36153" stroke="#f36153" points="392.35,-511.53 398.72,-502.6 393.33,-506.63 394.31,-501.72 394.31,-501.72 394.31,-501.72 393.33,-506.63 389.89,-500.84 392.35,-511.53 392.35,-511.53"/>
</g>
<!-- Meeting -->
<g id="node12" class="node">
<title>Meeting</title>
<path fill="none" stroke="black" d="M2221.69,-854C2221.69,-854 2385.69,-854 2385.69,-854 2391.69,-854 2397.69,-860 2397.69,-866 2397.69,-866 2397.69,-993 2397.69,-993 2397.69,-999 2391.69,-1005 2385.69,-1005 2385.69,-1005 2221.69,-1005 2221.69,-1005 2215.69,-1005 2209.69,-999 2209.69,-993 2209.69,-993 2209.69,-866 2209.69,-866 2209.69,-860 2215.69,-854 2221.69,-854"/>
<text text-anchor="middle" x="2303.69" y="-989.8" font-family="Times,serif" font-size="14.00">Meeting</text>
<polyline fill="none" stroke="black" points="2209.69,-982 2397.69,-982 "/>
<text text-anchor="start" x="2217.69" y="-966.8" font-family="Times,serif" font-size="14.00">id :INTEGER</text>
<text text-anchor="start" x="2217.69" y="-951.8" font-family="Times,serif" font-size="14.00">topic :varchar</text>
<text text-anchor="start" x="2217.69" y="-936.8" font-family="Times,serif" font-size="14.00">start_time :datetime</text>
<text text-anchor="start" x="2217.69" y="-921.8" font-family="Times,serif" font-size="14.00">user_id :varchar</text>
<text text-anchor="start" x="2217.69" y="-906.8" font-family="Times,serif" font-size="14.00">zoom_link :varchar</text>
<text text-anchor="start" x="2217.69" y="-891.8" font-family="Times,serif" font-size="14.00">created_at :datetime(6)</text>
<text text-anchor="start" x="2217.69" y="-876.8" font-family="Times,serif" font-size="14.00">updated_at :datetime(6)</text>
<text text-anchor="start" x="2217.69" y="-861.8" font-family="Times,serif" font-size="14.00">end_time :datetime</text>
</g>
<!-- MeetingInvitation -->
<g id="node13" class="node">
<title>MeetingInvitation</title>
<path fill="none" stroke="black" d="M2365.69,-643.5C2365.69,-643.5 2529.69,-643.5 2529.69,-643.5 2535.69,-643.5 2541.69,-649.5 2541.69,-655.5 2541.69,-655.5 2541.69,-737.5 2541.69,-737.5 2541.69,-743.5 2535.69,-749.5 2529.69,-749.5 2529.69,-749.5 2365.69,-749.5 2365.69,-749.5 2359.69,-749.5 2353.69,-743.5 2353.69,-737.5 2353.69,-737.5 2353.69,-655.5 2353.69,-655.5 2353.69,-649.5 2359.69,-643.5 2365.69,-643.5"/>
<text text-anchor="middle" x="2447.69" y="-734.3" font-family="Times,serif" font-size="14.00">MeetingInvitation</text>
<polyline fill="none" stroke="black" points="2353.69,-726.5 2541.69,-726.5 "/>
<text text-anchor="start" x="2361.69" y="-711.3" font-family="Times,serif" font-size="14.00">id :INTEGER</text>
<text text-anchor="start" x="2361.69" y="-696.3" font-family="Times,serif" font-size="14.00">user_id :INTEGER</text>
<text text-anchor="start" x="2361.69" y="-681.3" font-family="Times,serif" font-size="14.00">meeting_id :INTEGER</text>
<text text-anchor="start" x="2361.69" y="-666.3" font-family="Times,serif" font-size="14.00">created_at :datetime(6)</text>
<text text-anchor="start" x="2361.69" y="-651.3" font-family="Times,serif" font-size="14.00">updated_at :datetime(6)</text>
</g>
<!-- Meeting&#45;&gt;MeetingInvitation -->
<g id="edge23" class="edge">
<title>Meeting&#45;&gt;MeetingInvitation</title>
<path fill="none" stroke="#9bcbcf" d="M2355.78,-844.94C2373.61,-816.33 2393.22,-784.89 2409.72,-758.41"/>
<polygon fill="#9bcbcf" stroke="#9bcbcf" points="2355.53,-845.33 2346.43,-851.44 2352.89,-849.58 2350.24,-853.82 2350.24,-853.82 2350.24,-853.82 2352.89,-849.58 2354.06,-856.2 2355.53,-845.33 2355.53,-845.33"/>
<polygon fill="#9bcbcf" stroke="#9bcbcf" points="2409.9,-758.12 2419.01,-752.02 2412.55,-753.88 2415.19,-749.63 2415.19,-749.63 2415.19,-749.63 2412.55,-753.88 2411.37,-747.25 2409.9,-758.12 2409.9,-758.12"/>
</g>
<!-- Meeting&#45;&gt;User -->
<g id="edge22" class="edge">
<title>Meeting&#45;&gt;User</title>
<path fill="none" stroke="#1640ef" d="M2201.68,-854.51C2177.93,-832.9 2154.89,-807.59 2138.69,-780 2100.15,-714.36 2142.36,-676.7 2100.69,-613 2069.73,-565.66 2022.97,-525.78 1977.48,-494.75"/>
<polygon fill="#1640ef" stroke="#1640ef" points="2201.94,-854.74 2206.41,-864.76 2205.67,-858.07 2209.4,-861.4 2209.4,-861.4 2209.4,-861.4 2205.67,-858.07 2212.4,-858.04 2201.94,-854.74 2201.94,-854.74"/>
<polygon fill="#1640ef" stroke="#1640ef" points="1977.3,-494.63 1971.51,-485.32 1973.15,-491.84 1969,-489.06 1969,-489.06 1969,-489.06 1973.15,-491.84 1966.49,-492.79 1977.3,-494.63 1977.3,-494.63"/>
</g>
<!-- MeetingInvitation&#45;&gt;User -->
<g id="edge24" class="edge">
<title>MeetingInvitation&#45;&gt;User</title>
<path fill="none" stroke="#aa7765" d="M2380.98,-637.23C2369.31,-628.47 2356.97,-620.03 2344.69,-613 2227.77,-546.01 2083.23,-493.39 1978.6,-460.05"/>
<polygon fill="#aa7765" stroke="#aa7765" points="2381.01,-637.25 2386.2,-646.91 2384.97,-640.29 2388.94,-643.33 2388.94,-643.33 2388.94,-643.33 2384.97,-640.29 2391.68,-639.76 2381.01,-637.25 2381.01,-637.25"/>
<polygon fill="#aa7765" stroke="#aa7765" points="1978.46,-460 1970.28,-452.69 1973.69,-458.49 1968.92,-456.98 1968.92,-456.98 1968.92,-456.98 1973.69,-458.49 1967.56,-461.27 1978.46,-460 1978.46,-460"/>
</g>
<!-- Message -->
<g id="node14" class="node">
<title>Message</title>
<path fill="none" stroke="black" d="M2159.69,-636C2159.69,-636 2323.69,-636 2323.69,-636 2329.69,-636 2335.69,-642 2335.69,-648 2335.69,-648 2335.69,-745 2335.69,-745 2335.69,-751 2329.69,-757 2323.69,-757 2323.69,-757 2159.69,-757 2159.69,-757 2153.69,-757 2147.69,-751 2147.69,-745 2147.69,-745 2147.69,-648 2147.69,-648 2147.69,-642 2153.69,-636 2159.69,-636"/>
<text text-anchor="middle" x="2241.69" y="-741.8" font-family="Times,serif" font-size="14.00">Message</text>
<polyline fill="none" stroke="black" points="2147.69,-734 2335.69,-734 "/>
<text text-anchor="start" x="2155.69" y="-718.8" font-family="Times,serif" font-size="14.00">id :INTEGER</text>
<text text-anchor="start" x="2155.69" y="-703.8" font-family="Times,serif" font-size="14.00">user_id :INTEGER</text>
<text text-anchor="start" x="2155.69" y="-688.8" font-family="Times,serif" font-size="14.00">room_id :INTEGER</text>
<text text-anchor="start" x="2155.69" y="-673.8" font-family="Times,serif" font-size="14.00">content :TEXT</text>
<text text-anchor="start" x="2155.69" y="-658.8" font-family="Times,serif" font-size="14.00">created_at :datetime(6)</text>
<text text-anchor="start" x="2155.69" y="-643.8" font-family="Times,serif" font-size="14.00">updated_at :datetime(6)</text>
</g>
<!-- Room -->
<g id="node21" class="node">
<title>Room</title>
<path fill="none" stroke="black" d="M2361.69,-365.5C2361.69,-365.5 2525.69,-365.5 2525.69,-365.5 2531.69,-365.5 2537.69,-371.5 2537.69,-377.5 2537.69,-377.5 2537.69,-459.5 2537.69,-459.5 2537.69,-465.5 2531.69,-471.5 2525.69,-471.5 2525.69,-471.5 2361.69,-471.5 2361.69,-471.5 2355.69,-471.5 2349.69,-465.5 2349.69,-459.5 2349.69,-459.5 2349.69,-377.5 2349.69,-377.5 2349.69,-371.5 2355.69,-365.5 2361.69,-365.5"/>
<text text-anchor="middle" x="2443.69" y="-456.3" font-family="Times,serif" font-size="14.00">Room</text>
<polyline fill="none" stroke="black" points="2349.69,-448.5 2537.69,-448.5 "/>
<text text-anchor="start" x="2357.69" y="-433.3" font-family="Times,serif" font-size="14.00">id :INTEGER</text>
<text text-anchor="start" x="2357.69" y="-418.3" font-family="Times,serif" font-size="14.00">name :varchar</text>
<text text-anchor="start" x="2357.69" y="-403.3" font-family="Times,serif" font-size="14.00">is_private :boolean</text>
<text text-anchor="start" x="2357.69" y="-388.3" font-family="Times,serif" font-size="14.00">created_at :datetime(6)</text>
<text text-anchor="start" x="2357.69" y="-373.3" font-family="Times,serif" font-size="14.00">updated_at :datetime(6)</text>
</g>
<!-- Message&#45;&gt;Room -->
<g id="edge26" class="edge">
<title>Message&#45;&gt;Room</title>
<path fill="none" stroke="#ce176a" d="M2291.28,-627.75C2324.43,-582.46 2367.65,-523.4 2399.6,-479.74"/>
<polygon fill="#ce176a" stroke="#ce176a" points="2291.18,-627.88 2281.64,-633.29 2288.23,-631.92 2285.27,-635.95 2285.27,-635.95 2285.27,-635.95 2288.23,-631.92 2288.9,-638.61 2291.18,-627.88 2291.18,-627.88"/>
<polygon fill="#ce176a" stroke="#ce176a" points="2399.72,-479.57 2409.26,-474.16 2402.68,-475.54 2405.63,-471.5 2405.63,-471.5 2405.63,-471.5 2402.68,-475.54 2402,-468.85 2399.72,-479.57 2399.72,-479.57"/>
</g>
<!-- Message&#45;&gt;User -->
<g id="edge25" class="edge">
<title>Message&#45;&gt;User</title>
<path fill="none" stroke="#177829" d="M2185.46,-628.07C2169.69,-611.27 2151.86,-594.06 2133.69,-580 2086.17,-543.22 2029.1,-510.05 1977.87,-483.53"/>
<polygon fill="#177829" stroke="#177829" points="2185.77,-628.4 2189.25,-638.8 2189.16,-632.07 2192.56,-635.74 2192.56,-635.74 2192.56,-635.74 2189.16,-632.07 2195.86,-632.69 2185.77,-628.4 2185.77,-628.4"/>
<polygon fill="#177829" stroke="#177829" points="1977.6,-483.39 1970.76,-474.82 1973.16,-481.11 1968.71,-478.83 1968.71,-478.83 1968.71,-478.83 1973.16,-481.11 1966.65,-482.83 1977.6,-483.39 1977.6,-483.39"/>
</g>
<!-- Notification -->
<g id="node15" class="node">
<title>Notification</title>
<path fill="none" stroke="black" d="M1422.69,-1322C1422.69,-1322 1586.69,-1322 1586.69,-1322 1592.69,-1322 1598.69,-1328 1598.69,-1334 1598.69,-1334 1598.69,-1446 1598.69,-1446 1598.69,-1452 1592.69,-1458 1586.69,-1458 1586.69,-1458 1422.69,-1458 1422.69,-1458 1416.69,-1458 1410.69,-1452 1410.69,-1446 1410.69,-1446 1410.69,-1334 1410.69,-1334 1410.69,-1328 1416.69,-1322 1422.69,-1322"/>
<text text-anchor="middle" x="1504.69" y="-1442.8" font-family="Times,serif" font-size="14.00">Notification</text>
<polyline fill="none" stroke="black" points="1410.69,-1435 1598.69,-1435 "/>
<text text-anchor="start" x="1418.69" y="-1419.8" font-family="Times,serif" font-size="14.00">id :INTEGER</text>
<text text-anchor="start" x="1418.69" y="-1404.8" font-family="Times,serif" font-size="14.00">title :TEXT</text>
<text text-anchor="start" x="1418.69" y="-1389.8" font-family="Times,serif" font-size="14.00">content :TEXT</text>
<text text-anchor="start" x="1418.69" y="-1374.8" font-family="Times,serif" font-size="14.00">on_click_url :varchar</text>
<text text-anchor="start" x="1418.69" y="-1359.8" font-family="Times,serif" font-size="14.00">user_id :INTEGER</text>
<text text-anchor="start" x="1418.69" y="-1344.8" font-family="Times,serif" font-size="14.00">created_at :datetime(6)</text>
<text text-anchor="start" x="1418.69" y="-1329.8" font-family="Times,serif" font-size="14.00">updated_at :datetime(6)</text>
</g>
<!-- Option -->
<g id="node16" class="node">
<title>Option</title>
<path fill="none" stroke="black" d="M555.69,-636C555.69,-636 719.69,-636 719.69,-636 725.69,-636 731.69,-642 731.69,-648 731.69,-648 731.69,-745 731.69,-745 731.69,-751 725.69,-757 719.69,-757 719.69,-757 555.69,-757 555.69,-757 549.69,-757 543.69,-751 543.69,-745 543.69,-745 543.69,-648 543.69,-648 543.69,-642 549.69,-636 555.69,-636"/>
<text text-anchor="middle" x="637.69" y="-741.8" font-family="Times,serif" font-size="14.00">Option</text>
<polyline fill="none" stroke="black" points="543.69,-734 731.69,-734 "/>
<text text-anchor="start" x="551.69" y="-718.8" font-family="Times,serif" font-size="14.00">id :INTEGER</text>
<text text-anchor="start" x="551.69" y="-703.8" font-family="Times,serif" font-size="14.00">text :varchar</text>
<text text-anchor="start" x="551.69" y="-688.8" font-family="Times,serif" font-size="14.00">is_correct :boolean</text>
<text text-anchor="start" x="551.69" y="-673.8" font-family="Times,serif" font-size="14.00">question_id :INTEGER</text>
<text text-anchor="start" x="551.69" y="-658.8" font-family="Times,serif" font-size="14.00">created_at :datetime(6)</text>
<text text-anchor="start" x="551.69" y="-643.8" font-family="Times,serif" font-size="14.00">updated_at :datetime(6)</text>
</g>
<!-- Option&#45;&gt;Question -->
<g id="edge27" class="edge">
<title>Option&#45;&gt;Question</title>
<path fill="none" stroke="#f3213e" d="M637.69,-625.93C637.69,-586.6 637.69,-537.34 637.69,-496.8"/>
<polygon fill="#f3213e" stroke="#f3213e" points="637.69,-625.95 633.19,-635.95 637.69,-630.95 637.69,-635.95 637.69,-635.95 637.69,-635.95 637.69,-630.95 642.19,-635.95 637.69,-625.95 637.69,-625.95"/>
<polygon fill="#f3213e" stroke="#f3213e" points="637.69,-496.7 642.19,-486.7 637.69,-491.7 637.69,-486.7 637.69,-486.7 637.69,-486.7 637.69,-491.7 633.19,-486.7 637.69,-496.7 637.69,-496.7"/>
</g>
<!-- Option&#45;&gt;UserAnswear -->
<g id="edge28" class="edge">
<title>Option&#45;&gt;UserAnswear</title>
<path fill="none" stroke="#66d235" d="M693.37,-627.81C710.16,-606.93 728.44,-583.72 744.69,-562 828.94,-449.43 921.22,-314.92 976.78,-232.62"/>
<polygon fill="#66d235" stroke="#66d235" points="693.3,-627.91 683.52,-632.87 690.16,-631.8 687.02,-635.69 687.02,-635.69 687.02,-635.69 690.16,-631.8 690.52,-638.51 693.3,-627.91 693.3,-627.91"/>
<polygon fill="#66d235" stroke="#66d235" points="977.11,-232.13 986.43,-226.36 979.91,-227.99 982.7,-223.84 982.7,-223.84 982.7,-223.84 979.91,-227.99 978.97,-221.32 977.11,-232.13 977.11,-232.13"/>
</g>
<!-- ParentRelation -->
<g id="node17" class="node">
<title>ParentRelation</title>
<path fill="none" stroke="black" d="M1756.69,-102.5C1756.69,-102.5 1920.69,-102.5 1920.69,-102.5 1926.69,-102.5 1932.69,-108.5 1932.69,-114.5 1932.69,-114.5 1932.69,-196.5 1932.69,-196.5 1932.69,-202.5 1926.69,-208.5 1920.69,-208.5 1920.69,-208.5 1756.69,-208.5 1756.69,-208.5 1750.69,-208.5 1744.69,-202.5 1744.69,-196.5 1744.69,-196.5 1744.69,-114.5 1744.69,-114.5 1744.69,-108.5 1750.69,-102.5 1756.69,-102.5"/>
<text text-anchor="middle" x="1838.69" y="-193.3" font-family="Times,serif" font-size="14.00">ParentRelation</text>
<polyline fill="none" stroke="black" points="1744.69,-185.5 1932.69,-185.5 "/>
<text text-anchor="start" x="1752.69" y="-170.3" font-family="Times,serif" font-size="14.00">id :INTEGER</text>
<text text-anchor="start" x="1752.69" y="-155.3" font-family="Times,serif" font-size="14.00">parent_id :INTEGER</text>
<text text-anchor="start" x="1752.69" y="-140.3" font-family="Times,serif" font-size="14.00">child_id :INTEGER</text>
<text text-anchor="start" x="1752.69" y="-125.3" font-family="Times,serif" font-size="14.00">created_at :datetime(6)</text>
<text text-anchor="start" x="1752.69" y="-110.3" font-family="Times,serif" font-size="14.00">updated_at :datetime(6)</text>
</g>
<!-- ParentRelation&#45;&gt;User -->
<g id="edge29" class="edge">
<title>ParentRelation&#45;&gt;User</title>
<path fill="none" stroke="#e79178" d="M1781.2,-217.07C1776.14,-225 1771.77,-233.38 1768.69,-242 1766.01,-249.52 1764.46,-257.19 1763.87,-264.93"/>
<polygon fill="#e79178" stroke="#e79178" points="1781.31,-216.91 1790.66,-211.19 1784.12,-212.78 1786.94,-208.65 1786.94,-208.65 1786.94,-208.65 1784.12,-212.78 1783.22,-206.12 1781.31,-216.91 1781.31,-216.91"/>
<polygon fill="#e79178" stroke="#e79178" points="1763.87,-265.12 1759.13,-275.01 1763.75,-270.12 1763.63,-275.12 1763.63,-275.12 1763.63,-275.12 1763.75,-270.12 1768.12,-275.23 1763.87,-265.12 1763.87,-265.12"/>
<text text-anchor="middle" x="1792.69" y="-245.8" font-family="Times,serif" font-size="14.00">parent</text>
</g>
<!-- ParentRelation&#45;&gt;User -->
<g id="edge30" class="edge">
<title>ParentRelation&#45;&gt;User</title>
<path fill="none" stroke="#3b68b1" d="M1838.69,-218.78C1838.69,-233 1838.69,-248.72 1838.69,-264.91"/>
<polygon fill="#3b68b1" stroke="#3b68b1" points="1838.69,-218.71 1843.19,-208.71 1838.69,-213.71 1838.69,-208.71 1838.69,-208.71 1838.69,-208.71 1838.69,-213.71 1834.19,-208.71 1838.69,-218.71 1838.69,-218.71"/>
<polygon fill="#3b68b1" stroke="#3b68b1" points="1838.69,-265.16 1834.19,-275.16 1838.69,-270.16 1838.69,-275.16 1838.69,-275.16 1838.69,-275.16 1838.69,-270.16 1843.19,-275.16 1838.69,-265.16 1838.69,-265.16"/>
<text text-anchor="middle" x="1856.19" y="-245.8" font-family="Times,serif" font-size="14.00">child</text>
</g>
<!-- Participant -->
<g id="node18" class="node">
<title>Participant</title>
<path fill="none" stroke="black" d="M2571.69,-643.5C2571.69,-643.5 2735.69,-643.5 2735.69,-643.5 2741.69,-643.5 2747.69,-649.5 2747.69,-655.5 2747.69,-655.5 2747.69,-737.5 2747.69,-737.5 2747.69,-743.5 2741.69,-749.5 2735.69,-749.5 2735.69,-749.5 2571.69,-749.5 2571.69,-749.5 2565.69,-749.5 2559.69,-743.5 2559.69,-737.5 2559.69,-737.5 2559.69,-655.5 2559.69,-655.5 2559.69,-649.5 2565.69,-643.5 2571.69,-643.5"/>
<text text-anchor="middle" x="2653.69" y="-734.3" font-family="Times,serif" font-size="14.00">Participant</text>
<polyline fill="none" stroke="black" points="2559.69,-726.5 2747.69,-726.5 "/>
<text text-anchor="start" x="2567.69" y="-711.3" font-family="Times,serif" font-size="14.00">id :INTEGER</text>
<text text-anchor="start" x="2567.69" y="-696.3" font-family="Times,serif" font-size="14.00">user_id :INTEGER</text>
<text text-anchor="start" x="2567.69" y="-681.3" font-family="Times,serif" font-size="14.00">room_id :INTEGER</text>
<text text-anchor="start" x="2567.69" y="-666.3" font-family="Times,serif" font-size="14.00">created_at :datetime(6)</text>
<text text-anchor="start" x="2567.69" y="-651.3" font-family="Times,serif" font-size="14.00">updated_at :datetime(6)</text>
</g>
<!-- Participant&#45;&gt;Room -->
<g id="edge32" class="edge">
<title>Participant&#45;&gt;Room</title>
<path fill="none" stroke="#fb4472" d="M2607.87,-635.28C2572.76,-589.14 2524.54,-525.76 2489.45,-479.64"/>
<polygon fill="#fb4472" stroke="#fb4472" points="2607.89,-635.3 2610.36,-645.99 2610.92,-639.28 2613.94,-643.26 2613.94,-643.26 2613.94,-643.26 2610.92,-639.28 2617.53,-640.54 2607.89,-635.3 2607.89,-635.3"/>
<polygon fill="#fb4472" stroke="#fb4472" points="2489.33,-479.48 2486.86,-468.8 2486.3,-475.5 2483.27,-471.52 2483.27,-471.52 2483.27,-471.52 2486.3,-475.5 2479.69,-474.25 2489.33,-479.48 2489.33,-479.48"/>
</g>
<!-- Participant&#45;&gt;User -->
<g id="edge31" class="edge">
<title>Participant&#45;&gt;User</title>
<path fill="none" stroke="#70c431" d="M2589.68,-637.31C2577.36,-628.18 2564.1,-619.59 2550.69,-613 2464.49,-570.64 2433.57,-586.45 2340.69,-562 2217.84,-529.66 2078.95,-489.99 1978.46,-460.73"/>
<polygon fill="#70c431" stroke="#70c431" points="2589.68,-637.32 2594.9,-646.96 2593.66,-640.35 2597.63,-643.38 2597.63,-643.38 2597.63,-643.38 2593.66,-640.35 2600.36,-639.81 2589.68,-637.32 2589.68,-637.32"/>
<polygon fill="#70c431" stroke="#70c431" points="1978.46,-460.73 1970.11,-453.61 1973.66,-459.33 1968.85,-457.93 1968.85,-457.93 1968.85,-457.93 1973.66,-459.33 1967.6,-462.25 1978.46,-460.73 1978.46,-460.73"/>
</g>
<!-- Question&#45;&gt;UserAnswear -->
<g id="edge33" class="edge">
<title>Question&#45;&gt;UserAnswear</title>
<path fill="none" stroke="#582f52" d="M734.33,-344.36C778.28,-311.96 831.39,-274.03 880.69,-242 894.76,-232.86 909.84,-223.56 924.77,-214.63"/>
<polygon fill="#582f52" stroke="#582f52" points="734.27,-344.4 723.56,-346.72 730.25,-347.37 726.23,-350.34 726.23,-350.34 726.23,-350.34 730.25,-347.37 728.9,-353.96 734.27,-344.4 734.27,-344.4"/>
<polygon fill="#582f52" stroke="#582f52" points="924.94,-214.52 935.83,-213.28 929.24,-211.97 933.53,-209.41 933.53,-209.41 933.53,-209.41 929.24,-211.97 931.23,-205.54 924.94,-214.52 924.94,-214.52"/>
</g>
<!-- Resource&#45;&gt;ActiveStorage::Attachment -->
<g id="edge34" class="edge">
<title>Resource&#45;&gt;ActiveStorage::Attachment</title>
<path fill="none" stroke="#d4c246" d="M406.09,-325.05C403.61,-275.24 400.72,-217.33 399.06,-183.99"/>
<polygon fill="#d4c246" stroke="#d4c246" points="406.1,-325.29 402.1,-335.5 406.35,-330.28 406.6,-335.28 406.6,-335.28 406.6,-335.28 406.35,-330.28 411.09,-335.05 406.1,-325.29 406.1,-325.29"/>
<polygon fill="#d4c246" stroke="#d4c246" points="399.04,-183.66 403.04,-173.45 398.8,-178.67 398.55,-173.68 398.55,-173.68 398.55,-173.68 398.8,-178.67 394.05,-173.9 399.04,-183.66 399.04,-183.66"/>
<text text-anchor="middle" x="458.19" y="-245.8" font-family="Times,serif" font-size="14.00">file_attachment</text>
</g>
<!-- Resource&#45;&gt;ActiveStorage::Blob -->
<g id="edge35" class="edge">
<title>Resource&#45;&gt;ActiveStorage::Blob</title>
<path fill="none" stroke="#b7f13b" d="M306.02,-328.8C243.76,-276.04 169.47,-213.09 130.2,-179.81"/>
<polygon fill="#b7f13b" stroke="#b7f13b" points="306.03,-328.81 310.75,-338.71 309.85,-332.04 313.66,-335.28 313.66,-335.28 313.66,-335.28 309.85,-332.04 316.57,-331.84 306.03,-328.81 306.03,-328.81"/>
<polygon fill="#b7f13b" stroke="#b7f13b" points="130,-179.64 125.28,-169.74 126.18,-176.41 122.37,-173.17 122.37,-173.17 122.37,-173.17 126.18,-176.41 119.46,-176.61 130,-179.64 130,-179.64"/>
<text text-anchor="middle" x="250.69" y="-245.8" font-family="Times,serif" font-size="14.00">file_blob</text>
</g>
<!-- Resourceable -->
<g id="node28" class="node">
<title>Resourceable</title>
<ellipse fill="none" stroke="black" cx="624.69" cy="-155.5" rx="73.39" ry="18"/>
<text text-anchor="middle" x="624.69" y="-151.8" font-family="Times,serif" font-size="14.00">Resourceable</text>
</g>
<!-- Resource&#45;&gt;Resourceable -->
<g id="edge36" class="edge">
<title>Resource&#45;&gt;Resourceable</title>
<path fill="none" stroke="#a89aab" d="M484.52,-327.46C526.8,-275.89 576.75,-214.97 604.15,-181.55"/>
<polygon fill="#a89aab" stroke="#a89aab" points="484.45,-327.54 474.63,-332.42 481.28,-331.41 478.11,-335.28 478.11,-335.28 478.11,-335.28 481.28,-331.41 481.59,-338.13 484.45,-327.54 484.45,-327.54"/>
<polygon fill="#a89aab" stroke="#a89aab" points="604.27,-181.41 614.09,-176.53 607.44,-177.54 610.61,-173.68 610.61,-173.68 610.61,-173.68 607.44,-177.54 607.13,-170.82 604.27,-181.41 604.27,-181.41"/>
</g>
<!-- School&#45;&gt;Resource -->
<g id="edge38" class="edge">
<title>School&#45;&gt;Resource</title>
<path fill="none" stroke="#853ef1" d="M987.68,-637.02C974.91,-627.62 960.98,-619.02 946.69,-613 774.61,-540.55 693.69,-651.25 529.69,-562 506.34,-549.3 485.69,-529.99 468.42,-509.65"/>
<polygon fill="#853ef1" stroke="#853ef1" points="987.94,-637.22 993.16,-646.87 991.92,-640.25 995.89,-643.29 995.89,-643.29 995.89,-643.29 991.92,-640.25 998.62,-639.71 987.94,-637.22 987.94,-637.22"/>
<polygon fill="#853ef1" stroke="#853ef1" points="468.32,-509.54 465.44,-498.96 465.14,-505.68 461.96,-501.82 461.96,-501.82 461.96,-501.82 465.14,-505.68 458.49,-504.68 468.32,-509.54 468.32,-509.54"/>
</g>
<!-- School&#45;&gt;User -->
<g id="edge37" class="edge">
<title>School&#45;&gt;User</title>
<path fill="none" stroke="#92582e" d="M1115.92,-637.15C1142.1,-616.58 1173.38,-594.9 1204.69,-580 1365.06,-503.68 1566.16,-460.7 1698.34,-438.82"/>
<polygon fill="#92582e" stroke="#92582e" points="1115.79,-637.26 1105.16,-639.97 1111.88,-640.37 1107.97,-643.49 1107.97,-643.49 1107.97,-643.49 1111.88,-640.37 1110.77,-647.01 1115.79,-637.26 1115.79,-637.26"/>
<polygon fill="#92582e" stroke="#92582e" points="1698.66,-438.77 1709.25,-441.59 1703.59,-437.96 1708.53,-437.15 1708.53,-437.15 1708.53,-437.15 1703.59,-437.96 1707.8,-432.71 1698.66,-438.77 1698.66,-438.77"/>
</g>
<!-- User&#45;&gt;ParentRelation -->
<g id="edge40" class="edge">
<title>User&#45;&gt;ParentRelation</title>
<path fill="none" stroke="#2e53e0" d="M1877.49,-265.28C1877.12,-257.4 1876.23,-249.61 1874.69,-242 1873.1,-234.14 1870.77,-226.11 1868.05,-218.27"/>
<polygon fill="#2e53e0" stroke="#2e53e0" points="1877.49,-265.28 1873.17,-275.36 1877.58,-270.28 1877.67,-275.28 1877.67,-275.28 1877.67,-275.28 1877.58,-270.28 1882.17,-275.19 1877.49,-265.28 1877.49,-265.28"/>
<polygon fill="#2e53e0" stroke="#2e53e0" points="1868.02,-218.2 1868.77,-207.26 1866.29,-213.51 1864.55,-208.82 1864.55,-208.82 1864.55,-208.82 1866.29,-213.51 1860.33,-210.38 1868.02,-218.2 1868.02,-218.2"/>
</g>
<!-- User&#45;&gt;UserAnswear -->
<g id="edge39" class="edge">
<title>User&#45;&gt;UserAnswear</title>
<path fill="none" stroke="#9132a9" d="M1698.65,-372.43C1537.31,-320.51 1275.95,-236.39 1131.66,-189.96"/>
<polygon fill="#9132a9" stroke="#9132a9" points="1698.87,-372.5 1707.01,-379.85 1703.63,-374.03 1708.39,-375.57 1708.39,-375.57 1708.39,-375.57 1703.63,-374.03 1709.77,-371.28 1698.87,-372.5 1698.87,-372.5"/>
<polygon fill="#9132a9" stroke="#9132a9" points="1131.42,-189.88 1123.28,-182.54 1126.66,-188.35 1121.9,-186.82 1121.9,-186.82 1121.9,-186.82 1126.66,-188.35 1120.52,-191.1 1131.42,-189.88 1131.42,-189.88"/>
</g>
<!-- UserAnswear&#45;&gt;ActionText::RichText -->
<g id="edge41" class="edge">
<title>UserAnswear&#45;&gt;ActionText::RichText</title>
<path fill="none" stroke="#fa3bf3" d="M1027.69,-76.94C1027.69,-65.96 1027.69,-55.34 1027.69,-46.25"/>
<polygon fill="#fa3bf3" stroke="#fa3bf3" points="1027.69,-77.15 1023.19,-87.15 1027.69,-82.15 1027.69,-87.15 1027.69,-87.15 1027.69,-87.15 1027.69,-82.15 1032.19,-87.15 1027.69,-77.15 1027.69,-77.15"/>
<polygon fill="#fa3bf3" stroke="#fa3bf3" points="1027.69,-46.01 1032.19,-36.01 1027.69,-41.01 1027.69,-36.01 1027.69,-36.01 1027.69,-36.01 1027.69,-41.01 1023.19,-36.01 1027.69,-46.01 1027.69,-46.01"/>
<text text-anchor="middle" x="1080.19" y="-57.8" font-family="Times,serif" font-size="14.00">rich_text_body</text>
</g>
</g>
</svg>
