<?xml version="1.0" encoding="UTF-8" standalone="no"?>
<!DOCTYPE svg PUBLIC "-//W3C//DTD SVG 1.1//EN"
 "http://www.w3.org/Graphics/SVG/1.1/DTD/svg11.dtd">
<!-- Generated by graphviz version 2.43.0 (0)
 -->
<!-- Title: models_diagram Pages: 1 -->
<svg width="1934pt" height="580pt"
 viewBox="0.00 0.00 1934.44 580.00" xmlns="http://www.w3.org/2000/svg" xmlns:xlink="http://www.w3.org/1999/xlink">
<g id="graph0" class="graph" transform="scale(1 1) rotate(0) translate(4 576)">
<title>models_diagram</title>
<polygon fill="transparent" stroke="transparent" points="-4,4 -4,-576 1930.44,-576 1930.44,4 -4,4"/>
<!-- _diagram_info -->
<g id="node1" class="node">
<title>_diagram_info</title>
<text text-anchor="start" x="420.19" y="-557.6" font-family="Times,serif" font-size="13.00">Models diagram</text>
<text text-anchor="start" x="420.19" y="-543.6" font-family="Times,serif" font-size="13.00">Date: Jun 13 2023 &#45; 00:25</text>
<text text-anchor="start" x="420.19" y="-529.6" font-family="Times,serif" font-size="13.00">Migration version: 20230426213818</text>
<text text-anchor="start" x="420.19" y="-515.6" font-family="Times,serif" font-size="13.00">Generated by RailRoady 1.6.0</text>
<text text-anchor="start" x="420.19" y="-501.6" font-family="Times,serif" font-size="13.00">http://railroady.prestonlee.com</text>
</g>
<!-- Answear -->
<g id="node2" class="node">
<title>Answear</title>
<ellipse fill="none" stroke="black" cx="739.69" cy="-533" rx="50.89" ry="18"/>
<text text-anchor="middle" x="739.69" y="-529.3" font-family="Times,serif" font-size="14.00">Answear</text>
</g>
<!-- Assignment -->
<g id="node4" class="node">
<title>Assignment</title>
<ellipse fill="none" stroke="black" cx="496.69" cy="-439" rx="65.79" ry="18"/>
<text text-anchor="middle" x="496.69" y="-435.3" font-family="Times,serif" font-size="14.00">Assignment</text>
</g>
<!-- Answear&#45;&gt;Assignment -->
<g id="edge1" class="edge">
<title>Answear&#45;&gt;Assignment</title>
<path fill="none" stroke="#8b8575" d="M710.53,-510.87C701.3,-504.84 690.85,-498.65 680.69,-494 640.98,-475.84 593.65,-462.12 556.95,-453.05"/>
<polygon fill="#8b8575" stroke="#8b8575" points="710.67,-510.97 716.44,-520.29 714.81,-513.76 718.96,-516.56 718.96,-516.56 718.96,-516.56 714.81,-513.76 721.48,-512.83 710.67,-510.97 710.67,-510.97"/>
<polygon fill="#8b8575" stroke="#8b8575" points="556.61,-452.96 547.95,-446.24 551.75,-451.79 546.89,-450.61 546.89,-450.61 546.89,-450.61 551.75,-451.79 545.83,-454.98 556.61,-452.96 556.61,-452.96"/>
</g>
<!-- User -->
<g id="node23" class="node">
<title>User</title>
<ellipse fill="none" stroke="black" cx="1291.69" cy="-192" rx="33.29" ry="18"/>
<text text-anchor="middle" x="1291.69" y="-188.3" font-family="Times,serif" font-size="14.00">User</text>
</g>
<!-- Answear&#45;&gt;User -->
<g id="edge2" class="edge">
<title>Answear&#45;&gt;User</title>
<path fill="none" stroke="#99eecb" d="M766.87,-510.43C776.41,-504.01 787.53,-497.7 798.69,-494 849.01,-477.32 1272.69,-493.01 1272.69,-440 1272.69,-440 1272.69,-440 1272.69,-278 1272.69,-258.09 1277.72,-236.17 1282.6,-219.58"/>
<polygon fill="#99eecb" stroke="#99eecb" points="766.77,-510.51 756.01,-512.62 762.69,-513.4 758.61,-516.29 758.61,-516.29 758.61,-516.29 762.69,-513.4 761.21,-519.96 766.77,-510.51 766.77,-510.51"/>
<polygon fill="#99eecb" stroke="#99eecb" points="1282.61,-219.56 1289.87,-211.34 1284.09,-214.78 1285.57,-210.01 1285.57,-210.01 1285.57,-210.01 1284.09,-214.78 1281.28,-208.67 1282.61,-219.56 1282.61,-219.56"/>
</g>
<!-- UserAnswear -->
<g id="node24" class="node">
<title>UserAnswear</title>
<ellipse fill="none" stroke="black" cx="798.69" cy="-105" rx="73.39" ry="18"/>
<text text-anchor="middle" x="798.69" y="-101.3" font-family="Times,serif" font-size="14.00">UserAnswear</text>
</g>
<!-- Answear&#45;&gt;UserAnswear -->
<g id="edge3" class="edge">
<title>Answear&#45;&gt;UserAnswear</title>
<path fill="none" stroke="#07be24" d="M773.63,-511.45C795.81,-495.18 820.69,-470.19 820.69,-440 820.69,-440 820.69,-440 820.69,-321.5 820.69,-253.49 809.71,-174.03 803.27,-133.23"/>
<polygon fill="#07be24" stroke="#07be24" points="773.52,-511.53 762.74,-513.57 769.42,-514.39 765.32,-517.26 765.32,-517.26 765.32,-517.26 769.42,-514.39 767.9,-520.94 773.52,-511.53 773.52,-511.53"/>
<polygon fill="#07be24" stroke="#07be24" points="803.25,-133.13 806.1,-122.54 802.45,-128.19 801.66,-123.26 801.66,-123.26 801.66,-123.26 802.45,-128.19 797.22,-123.97 803.25,-133.13 803.25,-133.13"/>
</g>
<!-- ActionText::RichText -->
<g id="node25" class="node">
<title>ActionText::RichText</title>
<ellipse fill="none" stroke="black" cx="798.69" cy="-18" rx="106.68" ry="18"/>
<text text-anchor="middle" x="798.69" y="-14.3" font-family="Times,serif" font-size="14.00">ActionText::RichText</text>
</g>
<!-- Answear&#45;&gt;ActionText::RichText -->
<g id="edge4" class="edge">
<title>Answear&#45;&gt;ActionText::RichText</title>
<path fill="none" stroke="#97cd22" d="M768.42,-510.56C777.7,-504.46 788.28,-498.31 798.69,-494 851.21,-472.26 1048.69,-496.84 1048.69,-440 1048.69,-440 1048.69,-440 1048.69,-104 1048.69,-68.86 959.05,-45.33 887.13,-32.1"/>
<polygon fill="#97cd22" stroke="#97cd22" points="768.23,-510.69 757.43,-512.62 764.1,-513.52 759.97,-516.34 759.97,-516.34 759.97,-516.34 764.1,-513.52 762.51,-520.05 768.23,-510.69 768.23,-510.69"/>
<polygon fill="#97cd22" stroke="#97cd22" points="886.95,-32.07 877.9,-25.87 882.03,-31.19 877.11,-30.3 877.11,-30.3 877.11,-30.3 882.03,-31.19 876.31,-34.73 886.95,-32.07 886.95,-32.07"/>
<text text-anchor="middle" x="1110.69" y="-275.3" font-family="Times,serif" font-size="14.00">rich_text_content</text>
</g>
<!-- ActiveStorage::Attachment -->
<g id="node26" class="node">
<title>ActiveStorage::Attachment</title>
<ellipse fill="none" stroke="black" cx="397.69" cy="-105" rx="135.68" ry="18"/>
<text text-anchor="middle" x="397.69" y="-101.3" font-family="Times,serif" font-size="14.00">ActiveStorage::Attachment</text>
</g>
<!-- Answear&#45;&gt;ActiveStorage::Attachment -->
<g id="edge5" class="edge">
<title>Answear&#45;&gt;ActiveStorage::Attachment</title>
<path fill="none" stroke="#e50377" d="M712.19,-510.56C702.7,-504.2 691.68,-497.91 680.69,-494 629.6,-475.84 195.69,-494.22 195.69,-440 195.69,-440 195.69,-440 195.69,-234.5 195.69,-173.99 261.01,-140.75 317.37,-123.33"/>
<polygon fill="#e50377" stroke="#e50377" points="712.24,-510.59 717.84,-520.02 716.33,-513.47 720.43,-516.34 720.43,-516.34 720.43,-516.34 716.33,-513.47 723.01,-512.66 712.24,-510.59 712.24,-510.59"/>
<polygon fill="#e50377" stroke="#e50377" points="317.45,-123.3 328.32,-124.77 322.25,-121.88 327.04,-120.46 327.04,-120.46 327.04,-120.46 322.25,-121.88 325.76,-116.14 317.45,-123.3 317.45,-123.3"/>
<text text-anchor="middle" x="251.19" y="-318.8" font-family="Times,serif" font-size="14.00">file_attachment</text>
</g>
<!-- ActiveStorage::Blob -->
<g id="node27" class="node">
<title>ActiveStorage::Blob</title>
<ellipse fill="none" stroke="black" cx="102.69" cy="-105" rx="102.88" ry="18"/>
<text text-anchor="middle" x="102.69" y="-101.3" font-family="Times,serif" font-size="14.00">ActiveStorage::Blob</text>
</g>
<!-- Answear&#45;&gt;ActiveStorage::Blob -->
<g id="edge6" class="edge">
<title>Answear&#45;&gt;ActiveStorage::Blob</title>
<path fill="none" stroke="#682ca6" d="M712.55,-510.31C703.01,-503.88 691.88,-497.6 680.69,-494 604.86,-469.61 401.97,-483.73 322.69,-476 264.14,-470.29 249.66,-467.06 191.69,-457 154.16,-450.49 107.69,-478.09 107.69,-440 107.69,-440 107.69,-440 107.69,-191 107.69,-171.72 106.39,-150.02 105.12,-133.37"/>
<polygon fill="#682ca6" stroke="#682ca6" points="712.66,-510.39 718.2,-519.86 716.73,-513.29 720.81,-516.19 720.81,-516.19 720.81,-516.19 716.73,-513.29 723.41,-512.52 712.66,-510.39 712.66,-510.39"/>
<polygon fill="#682ca6" stroke="#682ca6" points="105.11,-133.21 108.79,-122.88 104.7,-128.22 104.3,-123.24 104.3,-123.24 104.3,-123.24 104.7,-128.22 99.82,-123.6 105.11,-133.21 105.11,-133.21"/>
<text text-anchor="middle" x="137.69" y="-318.8" font-family="Times,serif" font-size="14.00">file_blob</text>
</g>
<!-- ApplicationRecord -->
<g id="node3" class="node">
<title>ApplicationRecord</title>
<ellipse fill="none" stroke="black" cx="903.69" cy="-533" rx="95.58" ry="18"/>
<text text-anchor="middle" x="903.69" y="-529.3" font-family="Times,serif" font-size="14.00">ApplicationRecord</text>
</g>
<!-- Course -->
<g id="node6" class="node">
<title>Course</title>
<ellipse fill="none" stroke="black" cx="617.69" cy="-366" rx="43.59" ry="18"/>
<text text-anchor="middle" x="617.69" y="-362.3" font-family="Times,serif" font-size="14.00">Course</text>
</g>
<!-- Assignment&#45;&gt;Course -->
<g id="edge7" class="edge">
<title>Assignment&#45;&gt;Course</title>
<path fill="none" stroke="#44d1e0" d="M532,-417.28C548.73,-407.47 568.58,-395.82 584.96,-386.21"/>
<polygon fill="#44d1e0" stroke="#44d1e0" points="531.87,-417.36 520.97,-418.54 527.56,-419.89 523.24,-422.42 523.24,-422.42 523.24,-422.42 527.56,-419.89 525.52,-426.3 531.87,-417.36 531.87,-417.36"/>
<polygon fill="#44d1e0" stroke="#44d1e0" points="585.04,-386.16 595.94,-384.98 589.35,-383.63 593.66,-381.1 593.66,-381.1 593.66,-381.1 589.35,-383.63 591.38,-377.22 585.04,-386.16 585.04,-386.16"/>
</g>
<!-- Question -->
<g id="node19" class="node">
<title>Question</title>
<ellipse fill="none" stroke="black" cx="521.69" cy="-192" rx="51.99" ry="18"/>
<text text-anchor="middle" x="521.69" y="-188.3" font-family="Times,serif" font-size="14.00">Question</text>
</g>
<!-- Assignment&#45;&gt;Question -->
<g id="edge8" class="edge">
<title>Assignment&#45;&gt;Question</title>
<path fill="none" stroke="#32ac52" d="M475.27,-413.19C447.89,-378.29 406.92,-313.12 432.69,-261 443.26,-239.63 464.11,-223.14 482.98,-211.75"/>
<polygon fill="#32ac52" stroke="#32ac52" points="475.61,-413.61 478.39,-424.22 478.75,-417.5 481.89,-421.39 481.89,-421.39 481.89,-421.39 478.75,-417.5 485.39,-418.56 475.61,-413.61 475.61,-413.61"/>
<polygon fill="#32ac52" stroke="#32ac52" points="483.07,-211.69 493.98,-210.62 487.41,-209.21 491.74,-206.72 491.74,-206.72 491.74,-206.72 487.41,-209.21 489.5,-202.82 483.07,-211.69 483.07,-211.69"/>
</g>
<!-- Assignment&#45;&gt;ActionText::RichText -->
<g id="edge9" class="edge">
<title>Assignment&#45;&gt;ActionText::RichText</title>
<path fill="none" stroke="#50a632" d="M467.87,-415.8C431.97,-388.98 368,-343.88 307.69,-315 284.49,-303.89 270.77,-315.3 252.69,-297 232.88,-276.95 233.69,-264.68 233.69,-236.5 233.69,-236.5 233.69,-236.5 233.69,-104 233.69,-58.55 523.31,-34.61 687.84,-24.68"/>
<polygon fill="#50a632" stroke="#50a632" points="467.95,-415.86 473.24,-425.47 471.95,-418.87 475.94,-421.88 475.94,-421.88 475.94,-421.88 471.95,-418.87 478.65,-418.28 467.95,-415.86 467.95,-415.86"/>
<polygon fill="#50a632" stroke="#50a632" points="688.02,-24.67 698.27,-28.56 693.01,-24.37 698.01,-24.07 698.01,-24.07 698.01,-24.07 693.01,-24.37 697.74,-19.58 688.02,-24.67 688.02,-24.67"/>
<text text-anchor="middle" x="286.19" y="-231.8" font-family="Times,serif" font-size="14.00">rich_text_body</text>
</g>
<!-- Bill -->
<g id="node5" class="node">
<title>Bill</title>
<ellipse fill="none" stroke="black" cx="1217.69" cy="-279" rx="27" ry="18"/>
<text text-anchor="middle" x="1217.69" y="-275.3" font-family="Times,serif" font-size="14.00">Bill</text>
</g>
<!-- Bill&#45;&gt;User -->
<g id="edge10" class="edge">
<title>Bill&#45;&gt;User</title>
<path fill="none" stroke="#372c87" d="M1236.45,-254.44C1243.32,-246 1251.24,-236.47 1258.69,-228 1262.19,-224.03 1265.97,-219.87 1269.69,-215.88"/>
<polygon fill="#372c87" stroke="#372c87" points="1236.26,-254.67 1226.48,-259.63 1233.12,-258.56 1229.98,-262.45 1229.98,-262.45 1229.98,-262.45 1233.12,-258.56 1233.48,-265.28 1236.26,-254.67 1236.26,-254.67"/>
<polygon fill="#372c87" stroke="#372c87" points="1269.82,-215.75 1279.95,-211.55 1273.24,-212.11 1276.67,-208.47 1276.67,-208.47 1276.67,-208.47 1273.24,-212.11 1273.4,-205.38 1269.82,-215.75 1269.82,-215.75"/>
</g>
<!-- Enrollment -->
<g id="node7" class="node">
<title>Enrollment</title>
<ellipse fill="none" stroke="black" cx="949.69" cy="-279" rx="63.09" ry="18"/>
<text text-anchor="middle" x="949.69" y="-275.3" font-family="Times,serif" font-size="14.00">Enrollment</text>
</g>
<!-- Course&#45;&gt;Enrollment -->
<g id="edge14" class="edge">
<title>Course&#45;&gt;Enrollment</title>
<path fill="none" stroke="#79270b" d="M671.66,-364.38C724.44,-362.22 806.33,-354.69 872.69,-330 890.26,-323.46 907.93,-312.38 921.91,-302.31"/>
<polygon fill="#79270b" stroke="#79270b" points="671.5,-364.39 661.34,-360.25 666.5,-364.57 661.5,-364.74 661.5,-364.74 661.5,-364.74 666.5,-364.57 661.66,-369.24 671.5,-364.39 671.5,-364.39"/>
<polygon fill="#79270b" stroke="#79270b" points="922.08,-302.19 932.79,-299.83 926.09,-299.2 930.1,-296.22 930.1,-296.22 930.1,-296.22 926.09,-299.2 927.42,-292.61 922.08,-302.19 922.08,-302.19"/>
</g>
<!-- GradingScale -->
<g id="node8" class="node">
<title>GradingScale</title>
<ellipse fill="none" stroke="black" cx="617.69" cy="-279" rx="73.39" ry="18"/>
<text text-anchor="middle" x="617.69" y="-275.3" font-family="Times,serif" font-size="14.00">GradingScale</text>
</g>
<!-- Course&#45;&gt;GradingScale -->
<g id="edge16" class="edge">
<title>Course&#45;&gt;GradingScale</title>
<path fill="none" stroke="#06bb94" d="M617.69,-337.73C617.69,-328.06 617.69,-317.17 617.69,-307.48"/>
<polygon fill="#06bb94" stroke="#06bb94" points="617.69,-337.8 613.19,-347.8 617.69,-342.8 617.69,-347.8 617.69,-347.8 617.69,-347.8 617.69,-342.8 622.19,-347.8 617.69,-337.8 617.69,-337.8"/>
<polygon fill="#06bb94" stroke="#06bb94" points="617.69,-307.18 622.19,-297.18 617.69,-302.18 617.69,-297.18 617.69,-297.18 617.69,-297.18 617.69,-302.18 613.19,-297.18 617.69,-307.18 617.69,-307.18"/>
</g>
<!-- Lesson -->
<g id="node11" class="node">
<title>Lesson</title>
<ellipse fill="none" stroke="black" cx="304.69" cy="-279" rx="42.79" ry="18"/>
<text text-anchor="middle" x="304.69" y="-275.3" font-family="Times,serif" font-size="14.00">Lesson</text>
</g>
<!-- Course&#45;&gt;Lesson -->
<g id="edge13" class="edge">
<title>Course&#45;&gt;Lesson</title>
<path fill="none" stroke="#5a9aef" d="M564.83,-361.35C519.96,-357.11 454.34,-348.22 399.69,-330 377.41,-322.57 354.04,-310.34 336.06,-299.83"/>
<polygon fill="#5a9aef" stroke="#5a9aef" points="564.97,-361.36 574.52,-366.74 569.95,-361.81 574.93,-362.25 574.93,-362.25 574.93,-362.25 569.95,-361.81 575.33,-357.77 564.97,-361.36 564.97,-361.36"/>
<polygon fill="#5a9aef" stroke="#5a9aef" points="335.76,-299.66 329.48,-290.67 331.47,-297.09 327.18,-294.53 327.18,-294.53 327.18,-294.53 331.47,-297.09 324.87,-298.39 335.76,-299.66 335.76,-299.66"/>
</g>
<!-- Resource -->
<g id="node20" class="node">
<title>Resource</title>
<ellipse fill="none" stroke="black" cx="397.69" cy="-192" rx="53.89" ry="18"/>
<text text-anchor="middle" x="397.69" y="-188.3" font-family="Times,serif" font-size="14.00">Resource</text>
</g>
<!-- Course&#45;&gt;Resource -->
<g id="edge15" class="edge">
<title>Course&#45;&gt;Resource</title>
<path fill="none" stroke="#f4737c" d="M566.55,-358.48C525.23,-350.63 468.29,-333.6 432.69,-297 412.51,-276.25 403.95,-243.5 400.33,-220.3"/>
<polygon fill="#f4737c" stroke="#f4737c" points="566.58,-358.48 575.64,-364.67 571.51,-359.36 576.43,-360.24 576.43,-360.24 576.43,-360.24 571.51,-359.36 577.22,-355.81 566.58,-358.48 566.58,-358.48"/>
<polygon fill="#f4737c" stroke="#f4737c" points="400.29,-219.99 403.42,-209.48 399.63,-215.04 398.96,-210.08 398.96,-210.08 398.96,-210.08 399.63,-215.04 394.5,-210.68 400.29,-219.99 400.29,-219.99"/>
</g>
<!-- School -->
<g id="node22" class="node">
<title>School</title>
<ellipse fill="none" stroke="black" cx="750.69" cy="-279" rx="41.69" ry="18"/>
<text text-anchor="middle" x="750.69" y="-275.3" font-family="Times,serif" font-size="14.00">School</text>
</g>
<!-- Course&#45;&gt;School -->
<g id="edge11" class="edge">
<title>Course&#45;&gt;School</title>
<path fill="none" stroke="#b17c7a" d="M648.76,-345.15C669.99,-331.57 698.04,-313.65 719.34,-300.03"/>
<polygon fill="#b17c7a" stroke="#b17c7a" points="648.68,-345.2 637.83,-346.79 644.47,-347.89 640.25,-350.58 640.25,-350.58 640.25,-350.58 644.47,-347.89 642.68,-354.37 648.68,-345.2 648.68,-345.2"/>
<polygon fill="#b17c7a" stroke="#b17c7a" points="719.59,-299.88 730.44,-298.28 723.81,-297.18 728.02,-294.49 728.02,-294.49 728.02,-294.49 723.81,-297.18 725.6,-290.7 719.59,-299.88 719.59,-299.88"/>
</g>
<!-- Course&#45;&gt;User -->
<g id="edge12" class="edge">
<title>Course&#45;&gt;User</title>
<path fill="none" stroke="#525bcb" d="M659.87,-350.61C697.44,-337.5 753.71,-317.18 801.69,-297 836.14,-282.51 842.01,-272.14 877.69,-261 1009.34,-219.9 1172.72,-202.4 1248.88,-196.07"/>
<polygon fill="#525bcb" stroke="#525bcb" points="659.72,-350.66 648.79,-349.69 654.99,-352.3 650.27,-353.94 650.27,-353.94 650.27,-353.94 654.99,-352.3 651.75,-358.19 659.72,-350.66 659.72,-350.66"/>
<polygon fill="#525bcb" stroke="#525bcb" points="1249.07,-196.06 1259.4,-199.74 1254.05,-195.65 1259.04,-195.25 1259.04,-195.25 1259.04,-195.25 1254.05,-195.65 1258.67,-190.77 1249.07,-196.06 1249.07,-196.06"/>
</g>
<!-- Enrollment&#45;&gt;User -->
<g id="edge17" class="edge">
<title>Enrollment&#45;&gt;User</title>
<path fill="none" stroke="#7c7698" d="M1005.79,-264.06C1075.07,-246.84 1191.16,-217.99 1251.9,-202.89"/>
<polygon fill="#7c7698" stroke="#7c7698" points="1005.52,-264.12 994.73,-262.17 1000.67,-265.33 995.81,-266.54 995.81,-266.54 995.81,-266.54 1000.67,-265.33 996.9,-270.9 1005.52,-264.12 1005.52,-264.12"/>
<polygon fill="#7c7698" stroke="#7c7698" points="1252.17,-202.82 1262.96,-204.78 1257.02,-201.62 1261.87,-200.41 1261.87,-200.41 1261.87,-200.41 1257.02,-201.62 1260.79,-196.04 1252.17,-202.82 1252.17,-202.82"/>
</g>
<!-- Group -->
<g id="node9" class="node">
<title>Group</title>
<ellipse fill="none" stroke="black" cx="1378.69" cy="-279" rx="39.79" ry="18"/>
<text text-anchor="middle" x="1378.69" y="-275.3" font-family="Times,serif" font-size="14.00">Group</text>
</g>
<!-- Group&#45;&gt;User -->
<g id="edge18" class="edge">
<title>Group&#45;&gt;User</title>
<path fill="none" stroke="#5d1dcd" d="M1355.21,-255.06C1342.61,-242.74 1327.13,-227.63 1314.61,-215.4"/>
<polygon fill="#5d1dcd" stroke="#5d1dcd" points="1355.58,-255.42 1359.59,-265.63 1359.16,-258.92 1362.73,-262.41 1362.73,-262.41 1362.73,-262.41 1359.16,-258.92 1365.88,-259.19 1355.58,-255.42 1355.58,-255.42"/>
<polygon fill="#5d1dcd" stroke="#5d1dcd" points="1314.41,-215.19 1310.4,-204.99 1310.83,-211.7 1307.25,-208.21 1307.25,-208.21 1307.25,-208.21 1310.83,-211.7 1304.11,-211.42 1314.41,-215.19 1314.41,-215.19"/>
</g>
<!-- GroupEnrollment -->
<g id="node10" class="node">
<title>GroupEnrollment</title>
<ellipse fill="none" stroke="black" cx="1392.69" cy="-366" rx="91.78" ry="18"/>
<text text-anchor="middle" x="1392.69" y="-362.3" font-family="Times,serif" font-size="14.00">GroupEnrollment</text>
</g>
<!-- GroupEnrollment&#45;&gt;Group -->
<g id="edge20" class="edge">
<title>GroupEnrollment&#45;&gt;Group</title>
<path fill="none" stroke="#5b588c" d="M1388.2,-337.73C1386.59,-327.96 1384.77,-316.94 1383.17,-307.17"/>
<polygon fill="#5b588c" stroke="#5b588c" points="1388.23,-337.93 1385.42,-348.53 1389.05,-342.87 1389.86,-347.8 1389.86,-347.8 1389.86,-347.8 1389.05,-342.87 1394.3,-347.07 1388.23,-337.93 1388.23,-337.93"/>
<polygon fill="#5b588c" stroke="#5b588c" points="1383.15,-307.04 1385.96,-296.44 1382.33,-302.11 1381.52,-297.18 1381.52,-297.18 1381.52,-297.18 1382.33,-302.11 1377.08,-297.91 1383.15,-307.04 1383.15,-307.04"/>
</g>
<!-- GroupEnrollment&#45;&gt;User -->
<g id="edge19" class="edge">
<title>GroupEnrollment&#45;&gt;User</title>
<path fill="none" stroke="#52bf3e" d="M1366.01,-341.02C1353.66,-328.81 1339.56,-313.15 1329.69,-297 1314.87,-272.76 1304.49,-241.84 1298.37,-220.03"/>
<polygon fill="#52bf3e" stroke="#52bf3e" points="1366.22,-341.22 1370.31,-351.4 1369.83,-344.69 1373.43,-348.15 1373.43,-348.15 1373.43,-348.15 1369.83,-344.69 1376.55,-344.91 1366.22,-341.22 1366.22,-341.22"/>
<polygon fill="#52bf3e" stroke="#52bf3e" points="1298.31,-219.79 1300.05,-208.96 1297.01,-214.96 1295.71,-210.13 1295.71,-210.13 1295.71,-210.13 1297.01,-214.96 1291.36,-211.3 1298.31,-219.79 1298.31,-219.79"/>
</g>
<!-- Lesson&#45;&gt;Resource -->
<g id="edge21" class="edge">
<title>Lesson&#45;&gt;Resource</title>
<path fill="none" stroke="#2e3fe3" d="M329.2,-255.6C342.57,-243.38 359.11,-228.27 372.58,-215.95"/>
<polygon fill="#2e3fe3" stroke="#2e3fe3" points="329.13,-255.66 318.71,-259.09 325.44,-259.04 321.75,-262.41 321.75,-262.41 321.75,-262.41 325.44,-259.04 324.78,-265.73 329.13,-255.66 329.13,-255.66"/>
<polygon fill="#2e3fe3" stroke="#2e3fe3" points="372.73,-215.82 383.15,-212.39 376.42,-212.44 380.11,-209.07 380.11,-209.07 380.11,-209.07 376.42,-212.44 377.07,-205.75 372.73,-215.82 372.73,-215.82"/>
</g>
<!-- Meeting -->
<g id="node12" class="node">
<title>Meeting</title>
<ellipse fill="none" stroke="black" cx="1620.69" cy="-366" rx="49.29" ry="18"/>
<text text-anchor="middle" x="1620.69" y="-362.3" font-family="Times,serif" font-size="14.00">Meeting</text>
</g>
<!-- MeetingInvitation -->
<g id="node13" class="node">
<title>MeetingInvitation</title>
<ellipse fill="none" stroke="black" cx="1690.69" cy="-279" rx="94.48" ry="18"/>
<text text-anchor="middle" x="1690.69" y="-275.3" font-family="Times,serif" font-size="14.00">MeetingInvitation</text>
</g>
<!-- Meeting&#45;&gt;MeetingInvitation -->
<g id="edge23" class="edge">
<title>Meeting&#45;&gt;MeetingInvitation</title>
<path fill="none" stroke="#4d18c8" d="M1640.62,-340.8C1649.91,-329.52 1660.95,-316.11 1670.3,-304.76"/>
<polygon fill="#4d18c8" stroke="#4d18c8" points="1640.54,-340.89 1630.71,-345.75 1637.37,-344.75 1634.19,-348.61 1634.19,-348.61 1634.19,-348.61 1637.37,-344.75 1637.66,-351.47 1640.54,-340.89 1640.54,-340.89"/>
<polygon fill="#4d18c8" stroke="#4d18c8" points="1670.4,-304.64 1680.23,-299.78 1673.58,-300.78 1676.76,-296.92 1676.76,-296.92 1676.76,-296.92 1673.58,-300.78 1673.28,-294.06 1670.4,-304.64 1670.4,-304.64"/>
</g>
<!-- Meeting&#45;&gt;User -->
<g id="edge22" class="edge">
<title>Meeting&#45;&gt;User</title>
<path fill="none" stroke="#83c3c4" d="M1575.49,-349.9C1543.4,-338.07 1500.08,-319.82 1465.69,-297 1446.31,-284.14 1446.75,-274.35 1427.69,-261 1395.87,-238.71 1355.7,-219.58 1327.29,-207.34"/>
<polygon fill="#83c3c4" stroke="#83c3c4" points="1575.67,-349.96 1583.54,-357.59 1580.37,-351.66 1585.07,-353.36 1585.07,-353.36 1585.07,-353.36 1580.37,-351.66 1586.6,-349.13 1575.67,-349.96 1575.67,-349.96"/>
<polygon fill="#83c3c4" stroke="#83c3c4" points="1326.97,-207.2 1319.52,-199.16 1322.37,-205.25 1317.76,-203.3 1317.76,-203.3 1317.76,-203.3 1322.37,-205.25 1316.01,-207.45 1326.97,-207.2 1326.97,-207.2"/>
</g>
<!-- MeetingInvitation&#45;&gt;User -->
<g id="edge24" class="edge">
<title>MeetingInvitation&#45;&gt;User</title>
<path fill="none" stroke="#474ee3" d="M1627.71,-261.48C1587.51,-251.21 1534.21,-238.08 1486.69,-228 1434.03,-216.83 1372.87,-206.24 1333.29,-199.69"/>
<polygon fill="#474ee3" stroke="#474ee3" points="1627.95,-261.54 1636.52,-268.39 1632.8,-262.79 1637.64,-264.03 1637.64,-264.03 1637.64,-264.03 1632.8,-262.79 1638.76,-259.67 1627.95,-261.54 1627.95,-261.54"/>
<polygon fill="#474ee3" stroke="#474ee3" points="1333.09,-199.66 1323.95,-193.59 1328.15,-198.84 1323.22,-198.03 1323.22,-198.03 1323.22,-198.03 1328.15,-198.84 1322.49,-202.47 1333.09,-199.66 1333.09,-199.66"/>
</g>
<!-- Message -->
<g id="node14" class="node">
<title>Message</title>
<ellipse fill="none" stroke="black" cx="1526.69" cy="-279" rx="51.99" ry="18"/>
<text text-anchor="middle" x="1526.69" y="-275.3" font-family="Times,serif" font-size="14.00">Message</text>
</g>
<!-- Room -->
<g id="node21" class="node">
<title>Room</title>
<ellipse fill="none" stroke="black" cx="1685.69" cy="-192" rx="37.09" ry="18"/>
<text text-anchor="middle" x="1685.69" y="-188.3" font-family="Times,serif" font-size="14.00">Room</text>
</g>
<!-- Message&#45;&gt;Room -->
<g id="edge26" class="edge">
<title>Message&#45;&gt;Room</title>
<path fill="none" stroke="#621c75" d="M1562.64,-258.78C1589.73,-244.3 1626.59,-224.6 1652.88,-210.54"/>
<polygon fill="#621c75" stroke="#621c75" points="1562.48,-258.87 1551.54,-259.61 1558.07,-261.22 1553.66,-263.58 1553.66,-263.58 1553.66,-263.58 1558.07,-261.22 1555.78,-267.55 1562.48,-258.87 1562.48,-258.87"/>
<polygon fill="#621c75" stroke="#621c75" points="1652.89,-210.53 1663.83,-209.79 1657.3,-208.18 1661.71,-205.82 1661.71,-205.82 1661.71,-205.82 1657.3,-208.18 1659.59,-201.85 1652.89,-210.53 1652.89,-210.53"/>
</g>
<!-- Message&#45;&gt;User -->
<g id="edge25" class="edge">
<title>Message&#45;&gt;User</title>
<path fill="none" stroke="#958548" d="M1502.24,-255.31C1490.48,-245.54 1475.69,-234.81 1460.69,-228 1420.09,-209.56 1369.59,-200.73 1334.41,-196.57"/>
<polygon fill="#958548" stroke="#958548" points="1502.29,-255.35 1506.94,-265.28 1506.08,-258.61 1509.87,-261.87 1509.87,-261.87 1509.87,-261.87 1506.08,-258.61 1512.81,-258.46 1502.29,-255.35 1502.29,-255.35"/>
<polygon fill="#958548" stroke="#958548" points="1334.41,-196.57 1324.96,-191 1329.44,-196.02 1324.47,-195.47 1324.47,-195.47 1324.47,-195.47 1329.44,-196.02 1323.97,-199.95 1334.41,-196.57 1334.41,-196.57"/>
</g>
<!-- Notification -->
<g id="node15" class="node">
<title>Notification</title>
<ellipse fill="none" stroke="black" cx="1082.69" cy="-533" rx="64.99" ry="18"/>
<text text-anchor="middle" x="1082.69" y="-529.3" font-family="Times,serif" font-size="14.00">Notification</text>
</g>
<!-- Option -->
<g id="node16" class="node">
<title>Option</title>
<ellipse fill="none" stroke="black" cx="483.69" cy="-279" rx="42.49" ry="18"/>
<text text-anchor="middle" x="483.69" y="-275.3" font-family="Times,serif" font-size="14.00">Option</text>
</g>
<!-- Option&#45;&gt;Question -->
<g id="edge27" class="edge">
<title>Option&#45;&gt;Question</title>
<path fill="none" stroke="#d3d907" d="M495.37,-251.87C499.98,-241.56 505.27,-229.74 509.89,-219.4"/>
<polygon fill="#d3d907" stroke="#d3d907" points="495.28,-252.08 487.09,-259.37 493.24,-256.64 491.2,-261.21 491.2,-261.21 491.2,-261.21 493.24,-256.64 495.31,-263.04 495.28,-252.08 495.28,-252.08"/>
<polygon fill="#d3d907" stroke="#d3d907" points="509.99,-219.18 518.18,-211.89 512.03,-214.61 514.07,-210.05 514.07,-210.05 514.07,-210.05 512.03,-214.61 509.96,-208.21 509.99,-219.18 509.99,-219.18"/>
</g>
<!-- Option&#45;&gt;UserAnswear -->
<g id="edge28" class="edge">
<title>Option&#45;&gt;UserAnswear</title>
<path fill="none" stroke="#e35869" d="M517.72,-259.42C577.12,-226.99 699.27,-160.29 761.09,-126.53"/>
<polygon fill="#e35869" stroke="#e35869" points="517.45,-259.57 506.52,-260.41 513.06,-261.96 508.67,-264.36 508.67,-264.36 508.67,-264.36 513.06,-261.96 510.83,-268.31 517.45,-259.57 517.45,-259.57"/>
<polygon fill="#e35869" stroke="#e35869" points="761.34,-126.4 772.27,-125.55 765.72,-124 770.11,-121.6 770.11,-121.6 770.11,-121.6 765.72,-124 767.96,-117.65 761.34,-126.4 761.34,-126.4"/>
</g>
<!-- ParentRelation -->
<g id="node17" class="node">
<title>ParentRelation</title>
<ellipse fill="none" stroke="black" cx="1291.69" cy="-105" rx="79.89" ry="18"/>
<text text-anchor="middle" x="1291.69" y="-101.3" font-family="Times,serif" font-size="14.00">ParentRelation</text>
</g>
<!-- ParentRelation&#45;&gt;User -->
<g id="edge29" class="edge">
<title>ParentRelation&#45;&gt;User</title>
<path fill="none" stroke="#48e687" d="M1237.03,-125.25C1230.95,-129.53 1225.57,-134.72 1221.69,-141 1211.02,-158.26 1231.4,-171.29 1252.88,-179.71"/>
<polygon fill="#48e687" stroke="#48e687" points="1237.14,-125.19 1248.02,-123.8 1241.4,-122.57 1245.67,-119.96 1245.67,-119.96 1245.67,-119.96 1241.4,-122.57 1243.32,-116.13 1237.14,-125.19 1237.14,-125.19"/>
<polygon fill="#48e687" stroke="#48e687" points="1252.98,-179.75 1260.86,-187.38 1257.68,-181.45 1262.39,-183.14 1262.39,-183.14 1262.39,-183.14 1257.68,-181.45 1263.91,-178.91 1252.98,-179.75 1252.98,-179.75"/>
<text text-anchor="middle" x="1245.69" y="-144.8" font-family="Times,serif" font-size="14.00">parent</text>
</g>
<!-- ParentRelation&#45;&gt;User -->
<g id="edge30" class="edge">
<title>ParentRelation&#45;&gt;User</title>
<path fill="none" stroke="#55b95d" d="M1291.69,-133.48C1291.69,-143.17 1291.69,-154.06 1291.69,-163.73"/>
<polygon fill="#55b95d" stroke="#55b95d" points="1291.69,-133.18 1296.19,-123.18 1291.69,-128.18 1291.69,-123.18 1291.69,-123.18 1291.69,-123.18 1291.69,-128.18 1287.19,-123.18 1291.69,-133.18 1291.69,-133.18"/>
<polygon fill="#55b95d" stroke="#55b95d" points="1291.69,-163.8 1287.19,-173.8 1291.69,-168.8 1291.69,-173.8 1291.69,-173.8 1291.69,-173.8 1291.69,-168.8 1296.19,-173.8 1291.69,-163.8 1291.69,-163.8"/>
<text text-anchor="middle" x="1309.19" y="-144.8" font-family="Times,serif" font-size="14.00">child</text>
</g>
<!-- Participant -->
<g id="node18" class="node">
<title>Participant</title>
<ellipse fill="none" stroke="black" cx="1864.69" cy="-279" rx="61.99" ry="18"/>
<text text-anchor="middle" x="1864.69" y="-275.3" font-family="Times,serif" font-size="14.00">Participant</text>
</g>
<!-- Participant&#45;&gt;Room -->
<g id="edge32" class="edge">
<title>Participant&#45;&gt;Room</title>
<path fill="none" stroke="#77fce6" d="M1824.54,-258.93C1793.21,-244.06 1750.16,-223.61 1720.33,-209.45"/>
<polygon fill="#77fce6" stroke="#77fce6" points="1824.89,-259.1 1831.99,-267.45 1829.4,-261.24 1833.92,-263.39 1833.92,-263.39 1833.92,-263.39 1829.4,-261.24 1835.85,-259.32 1824.89,-259.1 1824.89,-259.1"/>
<polygon fill="#77fce6" stroke="#77fce6" points="1720.18,-209.38 1713.08,-201.02 1715.66,-207.23 1711.14,-205.09 1711.14,-205.09 1711.14,-205.09 1715.66,-207.23 1709.21,-209.15 1720.18,-209.38 1720.18,-209.38"/>
</g>
<!-- Participant&#45;&gt;User -->
<g id="edge31" class="edge">
<title>Participant&#45;&gt;User</title>
<path fill="none" stroke="#818bbe" d="M1809.96,-264.32C1804.48,-263.12 1798.99,-261.99 1793.69,-261 1624.64,-229.39 1420.94,-206.4 1334.16,-197.3"/>
<polygon fill="#818bbe" stroke="#818bbe" points="1810.01,-264.33 1818.78,-270.91 1814.89,-265.43 1819.77,-266.52 1819.77,-266.52 1819.77,-266.52 1814.89,-265.43 1820.75,-262.13 1810.01,-264.33 1810.01,-264.33"/>
<polygon fill="#818bbe" stroke="#818bbe" points="1334.12,-197.29 1324.64,-191.78 1329.15,-196.77 1324.17,-196.26 1324.17,-196.26 1324.17,-196.26 1329.15,-196.77 1323.71,-200.73 1334.12,-197.29 1334.12,-197.29"/>
</g>
<!-- Question&#45;&gt;UserAnswear -->
<g id="edge33" class="edge">
<title>Question&#45;&gt;UserAnswear</title>
<path fill="none" stroke="#0e302a" d="M569,-176.48C617.8,-161.51 693.79,-138.19 744.86,-122.52"/>
<polygon fill="#0e302a" stroke="#0e302a" points="568.9,-176.51 558.02,-175.15 564.12,-177.98 559.34,-179.45 559.34,-179.45 559.34,-179.45 564.12,-177.98 560.66,-183.75 568.9,-176.51 568.9,-176.51"/>
<polygon fill="#0e302a" stroke="#0e302a" points="745.17,-122.42 756.05,-123.79 749.95,-120.96 754.73,-119.49 754.73,-119.49 754.73,-119.49 749.95,-120.96 753.41,-115.19 745.17,-122.42 745.17,-122.42"/>
</g>
<!-- Resource&#45;&gt;ActiveStorage::Attachment -->
<g id="edge34" class="edge">
<title>Resource&#45;&gt;ActiveStorage::Attachment</title>
<path fill="none" stroke="#44e91e" d="M397.69,-163.73C397.69,-154.06 397.69,-143.17 397.69,-133.48"/>
<polygon fill="#44e91e" stroke="#44e91e" points="397.69,-163.8 393.19,-173.8 397.69,-168.8 397.69,-173.8 397.69,-173.8 397.69,-173.8 397.69,-168.8 402.19,-173.8 397.69,-163.8 397.69,-163.8"/>
<polygon fill="#44e91e" stroke="#44e91e" points="397.69,-133.18 402.19,-123.18 397.69,-128.18 397.69,-123.18 397.69,-123.18 397.69,-123.18 397.69,-128.18 393.19,-123.18 397.69,-133.18 397.69,-133.18"/>
<text text-anchor="middle" x="453.19" y="-144.8" font-family="Times,serif" font-size="14.00">file_attachment</text>
</g>
<!-- Resource&#45;&gt;ActiveStorage::Blob -->
<g id="edge35" class="edge">
<title>Resource&#45;&gt;ActiveStorage::Blob</title>
<path fill="none" stroke="#5a0c04" d="M348.52,-176.83C297.68,-162.18 218.22,-139.29 163.48,-123.51"/>
<polygon fill="#5a0c04" stroke="#5a0c04" points="348.6,-176.86 356.97,-183.95 353.41,-178.24 358.21,-179.62 358.21,-179.62 358.21,-179.62 353.41,-178.24 359.46,-175.3 348.6,-176.86 348.6,-176.86"/>
<polygon fill="#5a0c04" stroke="#5a0c04" points="163.16,-123.42 154.8,-116.33 158.36,-122.04 153.55,-120.66 153.55,-120.66 153.55,-120.66 158.36,-122.04 152.31,-124.98 163.16,-123.42 163.16,-123.42"/>
<text text-anchor="middle" x="298.69" y="-144.8" font-family="Times,serif" font-size="14.00">file_blob</text>
</g>
<!-- Resourceable -->
<g id="node28" class="node">
<title>Resourceable</title>
<ellipse fill="none" stroke="black" cx="624.69" cy="-105" rx="73.39" ry="18"/>
<text text-anchor="middle" x="624.69" y="-101.3" font-family="Times,serif" font-size="14.00">Resourceable</text>
</g>
<!-- Resource&#45;&gt;Resourceable -->
<g id="edge36" class="edge">
<title>Resource&#45;&gt;Resourceable</title>
<path fill="none" stroke="#dbf44a" d="M447.96,-177.18C468.26,-171.21 491.78,-163.82 512.69,-156 536.73,-147.01 562.97,-135.41 584,-125.64"/>
<polygon fill="#dbf44a" stroke="#dbf44a" points="447.89,-177.2 437.03,-175.66 443.09,-178.59 438.28,-179.98 438.28,-179.98 438.28,-179.98 443.09,-178.59 439.54,-184.3 447.89,-177.2 447.89,-177.2"/>
<polygon fill="#dbf44a" stroke="#dbf44a" points="584.21,-125.54 595.18,-125.37 588.74,-123.41 593.27,-121.29 593.27,-121.29 593.27,-121.29 588.74,-123.41 591.36,-117.22 584.21,-125.54 584.21,-125.54"/>
</g>
<!-- School&#45;&gt;Resource -->
<g id="edge38" class="edge">
<title>School&#45;&gt;Resource</title>
<path fill="none" stroke="#0517b6" d="M709.93,-263.97C706.48,-262.91 703.03,-261.91 699.69,-261 594.9,-232.45 566.27,-235.49 460.69,-210 456.36,-208.95 451.88,-207.83 447.39,-206.67"/>
<polygon fill="#0517b6" stroke="#0517b6" points="710.04,-264 718.22,-271.31 714.81,-265.51 719.57,-267.02 719.57,-267.02 719.57,-267.02 714.81,-265.51 720.93,-262.72 710.04,-264 710.04,-264"/>
<polygon fill="#0517b6" stroke="#0517b6" points="447.28,-206.65 438.74,-199.76 442.44,-205.38 437.6,-204.11 437.6,-204.11 437.6,-204.11 442.44,-205.38 436.46,-208.47 447.28,-206.65 447.28,-206.65"/>
</g>
<!-- School&#45;&gt;User -->
<g id="edge37" class="edge">
<title>School&#45;&gt;User</title>
<path fill="none" stroke="#ca865f" d="M782.31,-258.83C802.1,-247.82 828.52,-234.85 853.69,-228 927.3,-207.96 1153.23,-197.87 1248.55,-194.41"/>
<polygon fill="#ca865f" stroke="#ca865f" points="782.13,-258.93 771.21,-259.97 777.79,-261.4 773.44,-263.88 773.44,-263.88 773.44,-263.88 777.79,-261.4 775.67,-267.79 782.13,-258.93 782.13,-258.93"/>
<polygon fill="#ca865f" stroke="#ca865f" points="1248.71,-194.41 1258.87,-198.55 1253.71,-194.23 1258.71,-194.05 1258.71,-194.05 1258.71,-194.05 1253.71,-194.23 1258.55,-189.56 1248.71,-194.41 1248.71,-194.41"/>
</g>
<!-- User&#45;&gt;ParentRelation -->
<g id="edge40" class="edge">
<title>User&#45;&gt;ParentRelation</title>
<path fill="none" stroke="#8bd8ef" d="M1318.45,-170.09C1322.21,-165.86 1325.53,-161.12 1327.69,-156 1331.56,-146.84 1327.87,-137.73 1321.6,-129.85"/>
<polygon fill="#8bd8ef" stroke="#8bd8ef" points="1318.44,-170.09 1308.18,-173.94 1314.89,-173.61 1311.34,-177.13 1311.34,-177.13 1311.34,-177.13 1314.89,-173.61 1314.51,-180.33 1318.44,-170.09 1318.44,-170.09"/>
<polygon fill="#8bd8ef" stroke="#8bd8ef" points="1321.48,-129.73 1317.94,-119.35 1318.07,-126.08 1314.65,-122.43 1314.65,-122.43 1314.65,-122.43 1318.07,-126.08 1311.37,-125.5 1321.48,-129.73 1321.48,-129.73"/>
</g>
<!-- User&#45;&gt;UserAnswear -->
<g id="edge39" class="edge">
<title>User&#45;&gt;UserAnswear</title>
<path fill="none" stroke="#aea948" d="M1250.38,-183.88C1165.51,-169.24 970.78,-135.67 866.9,-117.76"/>
<polygon fill="#aea948" stroke="#aea948" points="1250.62,-183.92 1259.71,-190.05 1255.55,-184.77 1260.48,-185.62 1260.48,-185.62 1260.48,-185.62 1255.55,-184.77 1261.24,-181.18 1250.62,-183.92 1250.62,-183.92"/>
<polygon fill="#aea948" stroke="#aea948" points="866.69,-117.72 857.6,-111.59 861.76,-116.87 856.83,-116.02 856.83,-116.02 856.83,-116.02 861.76,-116.87 856.07,-120.46 866.69,-117.72 866.69,-117.72"/>
</g>
<!-- UserAnswear&#45;&gt;ActionText::RichText -->
<g id="edge41" class="edge">
<title>UserAnswear&#45;&gt;ActionText::RichText</title>
<path fill="none" stroke="#c4673a" d="M798.69,-76.73C798.69,-67.06 798.69,-56.17 798.69,-46.48"/>
<polygon fill="#c4673a" stroke="#c4673a" points="798.69,-76.8 794.19,-86.8 798.69,-81.8 798.69,-86.8 798.69,-86.8 798.69,-86.8 798.69,-81.8 803.19,-86.8 798.69,-76.8 798.69,-76.8"/>
<polygon fill="#c4673a" stroke="#c4673a" points="798.69,-46.18 803.19,-36.18 798.69,-41.18 798.69,-36.18 798.69,-36.18 798.69,-36.18 798.69,-41.18 794.19,-36.18 798.69,-46.18 798.69,-46.18"/>
<text text-anchor="middle" x="851.19" y="-57.8" font-family="Times,serif" font-size="14.00">rich_text_body</text>
</g>
</g>
</svg>
